<?xml version="1.0" standalone="no"?>
<!DOCTYPE svg PUBLIC "-//W3C//DTD SVG 1.1//EN" "http://www.w3.org/Graphics/SVG/1.1/DTD/svg11.dtd" >
<svg xmlns="http://www.w3.org/2000/svg">
<metadata><json><![CDATA[{
	"author": "lineicons.com",
	"version": "3.0.1",
	"copyright": "https://lineicons.com/license/",
	"license": "https://lineicons.com/license/",
	"url": "https://lineicons.com/"
}]]></json></metadata>
<defs>
  <font id="LineIcons" horiz-adv-x="298.6666666666667">
    <font-face font-family="LineIcons"
      units-per-em="256" ascent="256"
      descent="0" />
    <missing-glyph horiz-adv-x="0" />
    <glyph glyph-name="1st-prize"
      unicode="&#xEA01;"
      horiz-adv-x="256" d="M233.6 198.4H198V213.2C198 223.6 189.6 232.4 178.8 232.4H76.8C66.4 232.4 57.6 224 57.6 213.2V198.4H28C15.6 198.4 5.2 188 5.2 175.6V172C5.2 147.6 24.8 128 49.2 128H58.4C61.2 100.8 84.8 79.2 112.8 79.2H121.2V37.6H99.6C95.6 37.6 92.4 34.4 92.4 30.4S95.6 23.2 99.6 23.2H157.2C161.2 23.2 164.4 26.4 164.4 30.4S161.2 37.6 157.2 37.6H135.6V79.2H144C172 79.2 195.6 100.4 198.4 128H207.6C232 128 251.6 147.6 251.6 172V181.2C251.2 190.8 243.2 198.4 233.6 198.4zM72 213.2C72 216 74.4 218.4 77.2 218.4H179.2C182 218.4 184.4 216 184.4 213.2V198.4H72V213.2zM19.2 172V175.6C19.2 180.4 23.2 184.4 28 184.4H58V142H48.8C32.4 142 19.2 155.2 19.2 172zM143.2 93.2H112.8C90.4 93.2 72 111.6 72 134V184.4H184V134C184 111.6 165.6 93.2 143.2 93.2zM237.2 172C237.2 155.6 223.6 142 207.2 142H198V184.4H233.6C235.6 184.4 237.2 182.8 237.2 180.8V172zM134 172.8C132 174 129.6 174.4 127.6 173.6L112 168.4C108.4 167.2 106.4 163.2 107.6 159.6C108.8 156 112.8 154 116.4 155.2L122.4 157.2V124C122.4 120 125.6 116.8 129.6 116.8S136.8 120 136.8 124V167.2C136.8 169.6 136 171.6 134 172.8z" />
    <glyph glyph-name="24-7"
      unicode="&#xEA02;"
      horiz-adv-x="256" d="M232 162H181.6C181.2 162.4 181.2 162.8 180.8 162.8L147.2 196.4C148.8 199.2 149.6 202.4 149.6 206C149.6 218 140 227.6 128 227.6C116 227.6 106.4 218 106.4 206C106.4 202.4 107.2 199.2 108.8 196.4L75.2 162.8C74.8 162.4 74.8 162 74.4 162H24C13.6 162 4.8 153.6 4.8 142.8V47.6C4.8 37.2 13.2 28.4 24 28.4H232C242.4 28.4 251.2 36.8 251.2 47.6V142.8C251.2 153.2 242.4 162 232 162zM128 213.6C132 213.6 135.6 210 135.6 206C135.6 204 134.8 202 133.6 200.8C132.4 199.6 130.4 198.8 128.4 198.8S124.4 199.6 123.2 200.8C122 202 121.2 204 121.2 206C120.4 210 124 213.6 128 213.6zM118.4 186.4C121.2 184.8 124.4 184 128 184C131.6 184 134.8 184.8 137.6 186.4L162.4 161.6H94.4L118.4 186.4zM237.2 47.6C237.2 44.8 234.8 42.4 232 42.4H24C21.2 42.4 18.8 44.8 18.8 47.6V142.8C19.2 145.6 21.2 148 24 148H232C234.8 148 237.2 145.6 237.2 142.8V47.6zM68.4 126H44.8C40.8 126 37.6 122.8 37.6 118.8S40.8 111.6 44.8 111.6H61.6V97.6H44.8C40.8 97.6 37.6 94.4 37.6 90.4V68C37.6 64 40.8 60.8 44.8 60.8H68.4C72.4 60.8 75.6 64 75.6 68S72.4 75.2 68.4 75.2H52V84H68.8C72.8 84 76 87.2 76 91.2V119.2C75.6 122.8 72.4 126 68.4 126zM117.6 125.6C113.6 125.6 110.4 122.4 110.4 118.4V100.4H98.4V118.4C98.4 122.4 95.2 125.6 91.2 125.6S84 122.4 84 118.4V93.6C84 89.6 87.2 86.4 91.2 86.4H110.4V68C110.4 64 113.6 60.8 117.6 60.8S124.8 64 124.8 68V118C124.8 122.4 121.6 125.6 117.6 125.6zM208.8 123.2H182.8C178.8 123.2 175.6 120 175.6 116S178.8 108.8 182.8 108.8H200L189.2 68.4C188.4 64.8 190.4 60.8 194 60C194.8 60 195.2 59.6 196 59.6C199.2 59.6 202 61.6 202.8 64.8L216 114C216.4 116 216 118.4 214.8 120C213.2 122.4 211.2 123.2 208.8 123.2zM162 98.8H147.6C143.6 98.8 140.4 95.6 140.4 91.6S143.6 84.4 147.6 84.4H162C166 84.4 169.2 87.6 169.2 91.6S166 98.8 162 98.8z" />
    <glyph glyph-name="24-hours-truck"
      unicode="&#xEA08;"
      horiz-adv-x="256" d="M249.6 96.8L226.8 129.6C225.6 131.6 223.2 132.8 221.2 132.8H186.8V139.6C186.8 150.8 177.6 160.4 166 160.4H140.4C136.4 160.4 133.2 157.2 133.2 153.2S136.4 146 140.4 146H166C169.6 146 172.8 143.2 172.8 139.2V48H143.2C140.8 56.8 132.8 63.6 123.2 63.6S105.6 57.2 103.2 48H81.6C78 48 74.8 50.8 74.8 54.8V98.4C74.8 102.4 71.6 105.6 67.6 105.6S60.4 102.4 60.4 98.4V54.8C60.4 43.6 69.6 34 81.2 34H104C107.2 27.2 114.4 22 122.8 22S138 26.8 141.6 34H191.2C194.4 27.2 201.6 22 210 22S225.2 26.8 228.8 34H244C248 34 251.2 37.2 251.2 41.2V92.8C251.2 94 250.4 95.6 249.6 96.8zM217.6 118.8L232.4 97.6H186.8V118.8H217.6zM123.2 36C119.6 36 116.4 38.8 116.4 42.8S119.2 49.6 123.2 49.6S130 46.8 130 42.8S126.8 36 123.2 36zM209.6 36C206 36 202.8 38.8 202.8 42.8S205.6 49.6 209.6 49.6S216.4 46.8 216.4 42.8S213.2000000000001 36 209.6 36zM229.6 48C227.2 56.8 219.2 63.6 209.6 63.6S192 57.2 189.6 48H186.8V83.6H236.8V48H229.6zM128.8 172C128.8 206 101.2 234 66.8 234C32.8 234 5.2 206 5.2 172S32.8 110 67.2 110C101.2 110 128.8 138 128.8 172zM19.2 172C19.2 198.4 40.8 220 67.2 220S115.2 198.4 115.2 172S93.6 124 67.2 124S19.2 145.6 19.2 172zM57.6 198H43.6C39.6 198 36.4 194.8 36.4 190.8S40 184 43.6 184H50.8V176H43.6C39.6 176 36.4 172.8 36.4 168.8V146.8C36.4 142.8 39.6 139.6 43.6 139.6H57.6C61.6 139.6 64.8 142.8 64.8 146.8S61.6 154 57.6 154H50.4V162H57.6C61.6 162 64.8 165.2 64.8 169.2V191.2C64.8 194.8 61.6 198 57.6 198zM75.6 162H88.8V148.8C88.8 144.8 92 141.6 96 141.6S103.2 144.8 103.2 148.8V166V167.2V190.4C103.2 194.4 100 197.6 96 197.6S88.8 194.4 88.8 190.4V176H82.4V191.2C82.4 195.2 79.2 198.4 75.2 198.4S68 195.2 68 191.2V169.2C68.4 165.2 71.6 162 75.6 162z" />
    <glyph glyph-name="2nd-prize"
      unicode="&#xEA03;"
      horiz-adv-x="256" d="M233.6 198.4H198V213.2C198 223.6 189.6 232.4 178.8 232.4H76.8C66.4 232.4 57.6 224 57.6 213.2V198.4H28C15.6 198.4 5.2 188 5.2 175.6V172C5.2 147.6 24.8 128 49.2 128H58.4C61.2 100.8 84.8 79.2 112.8 79.2H121.2V37.6H99.6C95.6 37.6 92.4 34.4 92.4 30.4S95.6 23.2 99.6 23.2H157.2C161.2 23.2 164.4 26.4 164.4 30.4S161.2 37.6 157.2 37.6H135.6V79.2H144C172 79.2 195.6 100.4 198.4 128H207.6C232 128 251.6 147.6 251.6 172V181.2C251.2 190.8 243.2 198.4 233.6 198.4zM72 213.2C72 216 74.4 218.4 77.2 218.4H179.2C182 218.4 184.4 216 184.4 213.2V198.4H72V213.2zM19.2 172V175.6C19.2 180.4 23.2 184.4 28 184.4H58V142H48.8C32.4 142 19.2 155.2 19.2 172zM143.2 93.2H112.8C90.4 93.2 72 111.6 72 134V184.4H184V134C184 111.6 165.6 93.2 143.2 93.2zM237.2 172C237.2 155.6 223.6 142 207.2 142H198V184.4H233.6C235.6 184.4 237.2 182.8 237.2 180.8V172zM137.6 174H116.8C112.8 174 109.6 170.8 109.6 166.8S112.8 159.6 116.8 159.6H130.4V151.6H116.8C112.8 151.6 109.6 148.4 109.6 144.4V121.2C109.6 117.2 112.8 114 116.8 114H137.6C141.6 114 144.8 117.2 144.8 121.2S141.6 128.4 137.6 128.4H124V137.6H137.6C141.6 137.6 144.8 140.8 144.8 144.8V166.8C144.8 171.2 141.6 174 137.6 174z" />
    <glyph glyph-name="360-degree"
      unicode="&#xEA06;"
      horiz-adv-x="256" d="M251.2 185.6S250.8 185.6 251.2 185.6C251.2 203.2 228.4 217.6 188.8 225.6C184.8 226.4 181.2 224 180.4 220C179.6 216.4 182 212.4 186 211.6C221.2 204.8 237.2 193.2 237.2 185.2C237.2 178.8 227.6 171.6 210.8 165.6V182.8C210.8 186.8 207.6 190 203.6 190S196.4 186.8 196.4 182.8V161.6C178.4 157.2 155.6 154 128 154C100.4 154 77.2 157.2 59.6 161.6V182.8C59.6 186.8 56.4 190 52.4 190S45.2 186.8 45.2 182.8V165.6C28 171.6 18.8 179.2 18.8 185.2C18.8 192.8 34.8 204.4 70 211.6C73.6 212.4 76.4 216 75.6 220C74.8 223.6 71.2 226.4 67.2 225.6C28 217.6 5.2 203.2 5.2 185.6V76C5.2 46.4 68.4 30.4 128 30.4C158.8 30.4 190.4 34.8 214 42.8C214.8 42.8 215.2 43.2 216 43.6C236.8 51.2 250.8 62 251.2 76V185.6zM54 53.2L80.8 84C84 88 90 88.4 94 85.2L102.8 78.4C112.8 70.8 126.8 72.4 134.8 81.6L149.6 98.4C151.6 100.4 154 101.6 156.8 101.6S162.4 100.4 164 98L201.2 52.8C182.4 48 157.6 44.4 128 44.4C97.6 44.4 72.4 48 54 53.2zM214.8 57.6L174.4 107.2C170 112.4 163.6 115.6 156.4 116C149.6 116.4 142.8 113.2 138.4 108L124 91.2C120.8 87.6 114.8 86.8 110.8 90L102 96.8C92 104.4 78 102.8 70 93.6L39.6 58.8C26 64.4 18.8 70.8 18.8 76.4V163.6C26.4 158 37.2 153.6 49.6 150C50 149.6 50.8 149.6 51.6 149.6C73.6 143.2 101.2 140 128 140C154.8 140 182.4 143.2 204.4 149.6C205.2 149.6 205.6 150 206.4 150C218.8 153.6 229.2 158 237.2 163.6V76C236.8 70 229.2 63.6 214.8 57.6z" />
    <glyph glyph-name="3d"
      unicode="&#xEA07;"
      horiz-adv-x="256" d="M235.2 64.4S235.2 64.8 235.6 64.8C235.6 65.2 236 66 236 66.8V189.2C236 191.6 234.4 194 232.4 195.2L131.2 250C130.8 250 130.8 250 130.4 250.4C130 250.4 130 250.8 129.6 250.8H126.4C126 250.8 126 250.4 125.6 250.4S125.2 250.4 124.8 250L24 195.6C21.6 194 20 192 20 189.2V66.8C20 66 20 65.6 20.4 64.8C20.4 64.8 20.4 64.4 20.8 64.4C20.8 64 21.2 63.6 21.2 63.2C21.2 62.8 21.6 62.8 21.6 62.8C22 62.4 22 62 22.4 62L22.8 61.6C23.2 61.6 23.2 61.2 23.6 61.2L124.4 6.4C125.6 6 126.4 5.6 127.6 5.6S130 6 130.8 6.4L232 60.4C232.4 60.4 232.4 60.8 232.8 60.8S233.2 61.2 233.6 61.2L234.4000000000001 62C234.4000000000001 62.4 234.8000000000001 62.4 234.8000000000001 62.8C235.2000000000001 63.6000000000001 235.2000000000001 64 235.2000000000001 64.4zM222 78.4L135.2 125.6V232.4L222 185.2V78.4zM34 185.2L121.2 232.4V125.6L34 78.4V185.2zM128 20L42 66.8L128 113.6L214 66.8L128 20z" />
    <glyph glyph-name="500px"
      unicode="&#xEA04;"
      horiz-adv-x="256" d="M142.4 224.8C127.6 224.8 112.4 221.6 100.8 216.8C99.6 216.4 99.2 215.2 99.2 214S99.6 211.2 100.4 208.8C100.8 207.2 103.2 202 106.8 203.6C118.8 208 131.2 210.4 142.8 210.4C155.6 210.4 168.8 207.6 181.2 202.4C190.8 198 200 192.4 210 183.6C210.4 183.2 211.6 183.2 212.4 183.2C214 183.2 216.4 184.8 218 186.4C220.8000000000001 189.6 222.4 192 219.6 194.4C210 203.6 200 210 186.8 215.2C172.4 222 157.6 224.8 142.4 224.8zM65.2 88.4S66.4 84.4 66.8 82.8C71.2 73.2 76.8 64.8 84.4 56.8C91.6 49.6 100.8 44 110.4 39.2C120.4 34.8 130.8 33.2 142 33.2C153.2 33.2 163.6 35.6 173.6 39.2C183.2 43.6 191.6 49.2 199.6 56.8C206.8 64 212.4 73.2 217.2 82.8C221.6 92.8 223.2 103.2 223.2 114.4C223.2 125.6 220.8 136.4 217.2 146C212.8 155.6 207.2 164 199.6 172C192.4 179.2 183.2 184.8 173.6 189.6C163.6 194 153.2 196 142 196C130.8 196 120 193.6 110 189.6C102 186.4 88.4 177.6 80.8 169.2V236.4H192.8C197.2 236.4 197.2 242 197.2 244.4S197.2 252.4 192.8 252.4L71.6 251.6C68.4 251.6 66 248.8 66 246V152C66 149.2 70 146.8 73.2 146.4C80 144.8 81.6 146.8 83.2 149.2L83.6 149.6C86.4 153.6 94.4 161.6 94.4 161.6C106.8 174 123.6 180.8 141.2 180.8S175.6 174 188 161.6S207.2 132.4 207.2 114.8S200.4 80 188 67.6C175.6 55.2 158.8 48.4 140.8 48.4C128.8 48.4 117.2 51.2 107.6 58V115.2C107.6 123.2 110.8 130.8 116.8 137.2C123.2 144 132 148.4 141.2 148.4S159.2 145.2 165.6 138.8C171.6 132.4 175.2 124 175.2 115.2C175.2 96 160 81.2 141.2 81.2C137.2 81.2 130.4 82.8 130.4 82.8C126.4 84 124.8 78.4 124.4 77.2C122.8 70.4 125.6 69.2 126 68.8C132.4 67.2 136 66.4 141.6 66.4C168.8 66.4 190.8 88.4 190.8 115.6C190.8 142 168.8 164.8 141.6 164.8C128.8 164.8 116.4 159.6 106.8 150.8C97.6 141.6 92.8 130.4 92.8 118.8V71.6C87.6 77.2 82.8 85.6 79.2 94.8C78 98 74.8 97.6 71.2 96.4C69.2 94 64 92.4 65.2 88.4zM220.8 45.6C219.2 47.2 218 48.4 216.4 48.4C215.2 48.8 214 48.4 213.2 48L212.8 47.6C203.6 38.4 193.6 31.2 181.6 26.8C169.6 21.6 156.8 18.8 143.2 18.8C130.4 18.8 117.2 21.6 104.8 26.8C92.8 32 82.8 38.8 73.6 47.6C64.4 57.2 57.2 67.2 52.8 78.8C48.4 89.6 47.2 98 46.4 100.8V101.2C46 104 43.2 104.4 38.4 104C37.2 103.2 32 102.8 32 98.8C33.6 89.6 36 80.8 39.2 72.8C44.8 59.2 53.2 47.6 63.6 37.2C74.4 26.4 86 18.8 99.2 12.8C113.2 7.2 128 3.6 143.2 3.6S173.2 6.4 187.2 12.8C200.8 18.4 212.4 26.8 222.8 37.2L223.2 37.6C224 38.8 225.2 40.8 220.8 45.6zM122.8 102C122.8 100.4 124.4 99.2 125.2 98L125.6 97.6C127.2 96 128.4 95.2 130 95.2C131.6 95.2 131.6 95.6 131.6 95.6L140.8 104.8L149.2 96.4C149.6 96 150.8 95.2 152 94.8C153.6 94.8 154.8 95.2 156.4 97.2C160.4 101.2 158 102.8 156.8 104L148.4 112.4L157.6 122C159.2 124.4 158 126.4 156 128C153.2 130.8 150.8 130.8 149.2 129.6L140 121.6L131.6 130.8C131.2 131.2 130.4 131.2 130 131.2C128.8 131.2 127.2 130.8 125.6 128.8C122.8 126 122.4 124.4 124 122.4L133.2 113.2L124.8 103.6C123.2 103.6 122.8 102.8 122.8 102z" />
    <glyph glyph-name="5g-alt-1"
      unicode="&#xEA05;"
      horiz-adv-x="256" d="M58.4 127.6C62.4 127.6 65.6 130.8 65.6 134.8S62.4 142 58.4 142H12C8 142 4.8 138.8 4.8 134.8V91.2C5.2 87.2 8 84 12 84H51.2V54.4H12C8 54.4 4.8 51.2 4.8 47.2S8 40.8 12 40.8H52.8C59.6 40.8 65.6 46.4 65.6 53.6V86C65.6 92.8 60 98.8 52.8 98.8H19.2V128.4H58.4zM148 127.6C152 127.6 155.2 130.8 155.2 134.8S152 141.6 148 141.6H107.2C100.4 141.6 94.4 136 94.4 128.8V53.2C94.4 46.4 100 40.4 107.2 40.4H142.4C149.2 40.4 155.2 46 155.2 53.2V80C155.2 86.8 149.6 92.8 142.4 92.8H130.4C126.4 92.8 123.2 89.6 123.2 85.6S126.4 78.4 130.4 78.4H140.8V54.4H108.4V127.6H148zM181.2 215.2C177.2 215.2 174 212 174 208S177.2 200.8 181.2 200.8C212 200.8 236.8 176 236.8 145.2C236.8 141.2 240 138 244 138S251.2 141.2 251.2 145.2C251.2 184 219.6 215.2 181.2 215.2zM170 177.6C166 177.6 162.8 174.4 162.8 170.4S166 163.2 170 163.2C186 163.2 199.2 150 199.2 134C199.2 130 202.4 126.8 206.4 126.8S213.6 130 213.6 134C213.6 158.4 194 177.6 170 177.6z" />
    <glyph glyph-name="5g-alt"
      unicode="&#xEA09;"
      horiz-adv-x="256" d="M111.6 108C115.6 108 118.8 111.2 118.8 115.2S115.6 122.4 111.6 122.4H76C72 122.4 68.8 119.2 68.8 115.2V82C68.8 78 72 74.8 76 74.8H104.4V55.6H76C72 55.6 68.8 52.4 68.8 48.4S72 41.2 76 41.2H107.2C113.6 41.2 118.4 46.4 118.4 52.4V77.2000000000001C118.4 83.6000000000001 113.2 88.4 107.2 88.4H83.2V108H111.6zM180 108C184 108 187.2 111.2 187.2 115.2S184 122.4 180 122.4H148.8C142.4 122.4 137.6 117.2 137.6 111.2V53.6C137.6 47.2 142.8 42.4 148.8 42.4H175.6C182 42.4 186.8 47.6 186.8 53.6V74C186.8 80.4 181.6 85.2 175.6 85.2H166.4C162.4 85.2 159.2000000000001 82 159.2000000000001 78S162.4 70.8 166.4 70.8H172.8000000000001V56H151.6000000000001V108H180zM231.2 158.8H138.8V181.2C148.8 184.4 156.4 193.6 156.4 204.8C156.4 218.4 145.2 229.2 132 229.2S107.6 218 107.6 204.8C107.6 193.6 115.2 184.4 125.2 181.2V158.8H25.2C14.8 158.8 6 150.4 6 139.6V24C6 13.6 14.4 4.8 25.2 4.8H231.6C242 4.8 250.8 13.2 250.8 24V139.6C250 150 241.6 158.8 231.2 158.8zM121.2 204.8C121.2 210.8 126 215.2 131.6 215.2S142 210.4 142 204.8C142 199.2 138 194.8 132.4 194.4H130C125.2 194.8 121.2 199.2 121.2 204.8zM236 24C236 21.2 233.6 18.8 230.8 18.8H24.8C22 18.8 20 21.2 20 24V139.6C20 142.4 22.4 144.8 25.2 144.8H231.6C234.4 144.8 236.8 142.4 236.8 139.6V24zM181.2 192.4C182.4 191.2 184.4 190.4 186 190.4S189.6 191.2 190.8 192.4C204 205.6 204 227.2 190.8 240.8C188 243.6 183.6 243.6 180.8 240.8S178 233.6 180.8 230.8C188.8 222.8 188.8 210 180.8 202.4C178.4 199.6 178.4 195.2 181.2 192.4zM210.8 184.4C212 183.2 214 182.4 215.6 182.4S219.2 183.2 220.4 184.4C229.2000000000001 193.2 233.6 204.4 233.6 216.8C233.6 228.8 228.8 240.4 220.4 249.2C217.6 252 213.2000000000001 252 210.4 249.2S207.6 242 210.4 239.2C216.8 233.2 220 225.2 220 216.8C220 208.4 216.8 200.4 210.8 194.4C208 191.6 208 187.2 210.8 184.4zM69.6 190.4C71.2 190.4 73.2 191.2 74.4 192.4C77.2 195.2 77.2 199.6 74.4 202.4C66.4 210.4 66.4 223.2 74.4 230.8C77.2 233.6 77.2 238 74.4 240.8S67.2 243.6 64.4 240.8C51.2 227.6 51.2 206 64.4 192.4C66 191.2 68 190.4 69.6 190.4zM40.4 182.4C42 182.4 44 183.2 45.2 184.4C48 187.2 48 191.6 45.2 194.4C32.8 206.8 32.8 226.8 45.2 239.2C48 242 48 246.4 45.2 249.2S38 252 35.2 249.2C26.4 240.4 22 229.2 22 216.8C22 204.8 26.8 193.2 35.2 184.4C36.8 182.8 38.4 182.4 40.4 182.4z" />
    <glyph glyph-name="5g-sim"
      unicode="&#xEA0A;"
      horiz-adv-x="256" d="M188 250.8H107.6C100.8 250.8 94.4 248 90 243.2L50 202.8C45.2 198 42.8 192 42.8 185.2V29.6C42.8 16 54 4.8 67.6 4.8H187.6C201.2 4.8 212.4 16 212.4 29.6V225.6C212.8 240 201.6 250.8 188 250.8zM198.8 30C198.8 24 194 19.2 188 19.2H68C62 19.2 57.2 24 57.2 30V185.6C57.2 188.4 58.4 191.2 60.4 193.2L100 233.6C102 235.6 104.8 236.8 108 236.8H188C194 236.8 198.8 232 198.8 226V30zM116.4 125.2C120.4 125.2 123.6 128.4 123.6 132.4S120.4 139.6 116.4 139.6H83.2C79.2 139.6 76 136.4 76 132.4V101.2C76 97.2 79.2 94 83.2 94H109.2V76.8H83.2C79.2 76.8 76 73.6 76 69.6S79.2 62.4 83.2 62.4H112.4C118.4 62.4 123.6 67.2000000000001 123.6 73.6V96.8C123.6 102.8 118.8 108 112.4 108H90.4V125.2H116.4zM179.6 125.2C183.6 125.2 186.8 128.4 186.8 132.4S183.6 139.6 179.6 139.6H150.4C144.4 139.6 139.2 134.8 139.2 128.4V74C139.2 68 144 62.8 150.4 62.8H175.6C181.6 62.8 186.8 67.6 186.8 74V93.2C186.8 99.2 182 104.4 175.6 104.4H173.2C169.2 104.4 166 101.2 166 97.2C166 93.6 168.8 90.4 172.4 90.4V77.2H153.2V125.2H179.6z" />
    <glyph glyph-name="5g"
      unicode="&#xEA0B;"
      horiz-adv-x="256" d="M105.6 95.2C109.6 95.2 112.8 98.4 112.8 102.4S109.6 109.6 105.6 109.6H57.6C53.6 109.6 50.4 106.4 50.4 102.4V57.2C50.4 53.2 53.6 50 57.6 50H98.8V18.8H57.2C53.2 18.8 50 15.6 50 11.6S53.2 4.4 57.2 4.4H99.6C106.8 4.4 112.4 10 112.4 17.2V50.8C112.4 58 106.8 63.6000000000001 99.6 63.6000000000001H64.4V94.8H105.6zM198.8 95.2C202.8 95.2 206 98.4 206 102.4S202.8 109.6 198.8 109.6H156.4C149.2 109.6 143.6 104 143.6 96.8V17.9999999999999C143.6 10.8 149.2 5.1999999999999 156.4 5.1999999999999H192.8C200 5.1999999999999 205.6 10.7999999999999 205.6 17.9999999999999V45.5999999999999C205.6 52.7999999999999 200 58.4 192.8 58.4H180.4C176.4 58.4 173.2 55.2 173.2 51.2S176.4 44 180.4 44H191.6V18.8H157.6V95.2H198.8zM63.6 168.8C99.2 204.4 156.8 204.4 192.4 168.8C193.6 167.6 195.6 166.8 197.2 166.8S200.8 167.6 202 168.8C204.8000000000001 171.6 204.8000000000001 176 202 178.8C161.2000000000001 219.6 94.4 219.6 53.2 178.8C50.4 176 50.4 171.6 53.2 168.8C56.4 166 60.8 166 63.6 168.8zM168 137.2C169.6 137.2 171.6 138 172.8 139.2C175.6 142 175.6 146.4 172.8 149.2C148 174 107.6 174 82.4 149.2C79.6 146.4 79.6 142 82.4 139.2S89.6 136.4 92.4 139.2C102 148.8 114.4 153.6 127.6 153.6S153.6 148.4 162.8 139.2C164.4 138 166.4 137.2 168 137.2zM232 208C204 235.6 167.2 250.8 128 250.8S52 235.6 24 208C21.2 205.2 21.2 200.8 24 198C25.6 196.8 27.2 196 29.2 196S32.8 196.8 34 198C59.2 223.2 92.4 236.8 128 236.8S196.8 222.8 222 198C224.8 195.2 229.2 195.2 232 198C234.4 200.8 234.4 205.2 232 208z" />
    <glyph glyph-name="IOT"
      unicode="&#xEA0C;"
      horiz-adv-x="256" d="M244 164C240 164 236.8 160.8 236.8 156.8V132.8C236.8 131.2 235.6 130 234 130H192.8V149.6H205.6C209.6 149.6 212.8 152.8 212.8 156.8S209.6 164 205.6 164H192.8V165.2C192.8 178 182.4 188.4 169.6 188.4H168.4V205.6C168.4 209.6 165.2000000000001 212.8 161.2000000000001 212.8S154.0000000000001 209.6 154.0000000000001 205.6V188H134.4000000000001V233.6C134.4000000000001 242.8 126.8000000000001 250.4 117.6000000000001 250.4H93.6000000000001C89.6000000000001 250.4 86.4000000000001 247.2 86.4000000000001 243.2S89.6 236 93.6 236H117.6C119.2 236 120.4 234.8 120.4 233.2V188H100.8V205.2C100.8 209.2 97.6 212.4 93.6 212.4S86.4 209.2 86.4 205.2V188H85.2C72.4 188 62 177.6 62 164.8V164H49.2C45.2 164 42 160.8 42 156.8S45.2 149.6 49.2 149.6H62V130H21.6C12.4 130 4.8 122.4 4.8 113.2V89.2C4.8 85.2 8 82 12 82S19.2 85.2 19.2 89.2V113.2C19.2 115.2 20 116 21.6 116H63.2V96.4H50.4C46.4 96.4 43.2 93.2 43.2 89.2S46.4 82 50.4 82H63.2V80.8C63.2 68 73.6 57.6000000000001 86.4 57.6000000000001H87.6V45.2C87.6 41.2 90.8 38.0000000000001 94.8 38.0000000000001S102 41.2 102 45.2V57.6000000000001H121.6V21.2C121.6 12.0000000000001 129.2 4.4 138.4 4.4H162.4C166.4 4.4 169.6 7.6 169.6 11.6S166.4 18.8 162.4 18.8H138.4C136.8000000000001 18.8 135.6 20 135.6 21.6V58H155.2V45.6C155.2 41.6 158.4 38.4 162.4 38.4S169.6 41.6 169.6 45.6V58H170.8C183.6 58 194 68.4 194 81.2V82.4H206.8C210.8 82.4 214 85.6 214 89.6S210.8 96.8 206.8 96.8H194V116H235.6C244.8 116 252.4 123.6 252.4 132.8V156.8C251.2 160.8 248 164 244 164zM178.8 81.6C178.8 76.8 174.8 72.4 169.6 72.4H86.4C81.6 72.4 77.2 76.4 77.2 81.6V164.8C77.2 169.6 81.2 174 86.4 174H169.6C174.4 174 178.8 170 178.8 164.8V81.6zM139.2 149.6H116.8C108.4 149.6 101.6 142.8 101.6 134.4V112C101.6 103.6 108.4 96.8 116.8 96.8H139.2C147.6 96.8 154.4 103.6 154.4 112V134.4C154.4 142.8 147.6 149.6 139.2 149.6zM140.4 112C140.4 111.6 140 110.8 139.2 110.8H116.8C116.4 110.8 115.6 111.2 115.6 112V134.4C115.6 134.8 116 135.6 116.8 135.6H139.2C139.6 135.6 140.4 135.2 140.4 134.4V112z" />
    <glyph glyph-name="abstract-1"
      unicode="&#xEA0D;"
      horiz-adv-x="256" d="M228 196.8L137.6 249.2A20.4 20.4 0 0 1 118.4 249.2L28 196.8C22 193.6 18.4 187.2 18.4 180.4V75.6C18.4 68.8 22 62.4 28 59.2L118.8 6.8C121.6 5.2 125.2 4.4 128.4 4.4C131.6 4.4 134.8 5.2 138 6.8L228 59.2C234 62.4 237.6 68.8 237.6 75.6V180.4C237.6 187.2 234 193.6 228 196.8zM34.8 184.8L125.6 237.2C126.4 237.6 127.2 238 128 238S129.6 237.6 130.4 237.2L214.8 188.4L168 160C166.8 161.2 165.6 162 164 162.8L140 177.2C132.8 181.6 123.6 181.6 116.4 177.2L92 162.8C84.8 158.8 80.4 150.8 80.4 142.8V113.6C80.4 112 80.8 110.4 80.8 108.8L32.4 80.4V180.4C32.4 182 33.2 183.6 34.8 184.8zM99.2 105.2C96.4 106.8 94.4 110 94.4 113.2V142.4C94.4 145.6 96 148.8 99.2 150.4L123.6 164.8C125.2 165.6 126.8 166 128.4 166S131.6 165.6 133.2000000000001 164.8L157.6000000000001 150.4C160.4000000000001 148.8 162.4000000000001 145.6 162.4000000000001 142.4V113.2C162.4000000000001 110 160.8000000000001 106.8 157.6000000000001 105.2L133.2000000000001 90.8C130.4 89.2 126.4000000000001 89.2 123.6000000000001 90.8L99.2000000000001 105.2zM221.2 71.2L130.4 18.8C128.8 18 126.8 18 125.2 18.8L39.6 68.8L88 96.4C89.2 95.2 90.4 94.4 92 93.2L116.4 78.8C120 76.8 124 75.6 128.4 75.6S136.8 76.8 140.4 78.8L164.8 93.2C172 97.2 176.4 105.2 176.4 113.2V142.4C176.4 144 176 146 175.6 147.6L224.4 176.8V75.2000000000001C223.6 74.0000000000001 222.8 72.4 221.2 71.2000000000001z" />
    <glyph glyph-name="abstract"
      unicode="&#xEA0E;"
      horiz-adv-x="256" d="M224.8 250.8H179.6C147.2 250.8 120.8 224.4 120.8 192V134.8H63.6C31.2 134.8 4.8 108.4 4.8 76V31.2C4.8 16.8 16.8 4.8 31.2 4.8H76C108.4 4.8 134.8 31.2 134.8 63.6V120.8H192C224.4 120.8 250.8 147.2 250.8 179.6V224.8C251.2 239.2 239.2 250.8 224.8 250.8zM121.2 63.6C121.2 38.8 101.2 18.8 76.4 18.8H31.2C24.4 18.8 18.8 24.4 18.8 31.2V76.4C18.8 101.2 38.8 121.2 63.6 121.2H120.8V63.6zM237.2 179.6C237.2 154.8 217.2 134.8 192.4 134.8H135.2V192.4C135.2 217.2 155.2 237.2 180 237.2H224.8C231.6 237.2 237.2 231.6 237.2 224.8V179.6z" />
    <glyph glyph-name="achievement"
      unicode="&#xEA0F;"
      horiz-adv-x="256" d="M191.6 74C210.8 74 226 89.6 226 108.4S210.4 142.8 191.6 142.8C172.4 142.8 157.2 127.2 157.2 108.4S172.4 74 191.6 74zM191.6 128.8C202.8 128.8 212 119.6 212 108.4S202.8 88 191.6 88S171.2 97.2 171.2 108.4S180 128.8 191.6 128.8zM249.2 34.4C234.8 49.2 214 58 192.4 58S150 49.6 135.6 34.4C132.8 31.6 132.8 27.2 135.6 24.4S142.8 21.6 145.6 24.4C157.6 36.8 174.8 43.6 192.4 43.6S227.2 36.4 239.2 24.4C240.4 23.2 242.4 22.4 244.4 22.4C246 22.4 248 23.2 249.2 24.4C251.6 27.2 251.6 32 249.2 34.4zM118.4 191.6C120.8 195.2 121.2 200 119.2 204C117.2 208 112.8 210.4 108.4 210.4H19.2V227.6C19.2 231.6 16 234.8 12 234.8S5.2 231.6 5.2 227.6V28.4C5.2 24.4 8.4 21.2 12.4 21.2S19.6 24.4 19.6 28.4V128H109.2C113.6 128 118 130.4 120 134.4S121.6 143.2 119.2 146.8L106.8 164.4C104.8 167.2 104.8 171.2 106.8 174L118.4 191.6zM94.8 182C89.6 174.4 89.6 164 94.8 156.4L104.8 142H19.2V196.4H105.2L94.8 182z" />
    <glyph glyph-name="add-alt"
      unicode="&#xEA10;"
      horiz-adv-x="256" d="M52.4 194.4C56.4 194.4 59.6 197.6 59.6 201.6V202C59.6 206 56.4 209.2 52.4 209.2S45.2 206 45.2 202V201.6C45.6 197.2 48.8 194.4 52.4 194.4zM144.4 194.4H166C170 194.4 173.2 197.6 173.2 201.6S170 208.8 166 208.8H144.4C140.4 208.8 137.2 205.6 137.2 201.6S140.4 194.4 144.4 194.4zM52.4 140.4C48.4 140.4 45.2 137.2 45.2 133.2V132.8C45.2 128.8 48.4 125.6 52.4 125.6S59.6 128.8 59.6 132.8V133.2C59.6 137.6 56.4 140.4 52.4 140.4zM206 148.4C206 154.8 203.6 160.4 199.6 164.8C203.6 168.4 206 173.2 206 178.8V223.2C206 233.6 197.6 242.4 186.8 242.4H24C13.6 242.4 4.8 234 4.8 223.2V178.8C4.8 173.2 7.2 168 11.2 164.8C7.2 160.4 4.8 154.4 4.8 147.6V117.6C4.8 103.2 16.4 91.6 30.8 91.6H112C111.6 88.8 111.6 86 111.6 83.2C111.6 44.8 142.8 13.6 181.2 13.6S250.8 44.8 250.8 83.2C251.2 113.2 232.4 138.4 206 148.4zM19.2 223.2C19.2 226 21.2 228 24 228H186.8C189.6 228 192 226 192 223.2V178.8C192 176 189.6 173.6 186.8 173.6H24C21.2 173.6 18.8 176 18.8 178.8V223.2zM31.2 105.6C24.4 105.6 19.2 111.2 19.2 117.6V147.6C19.2 154.4 24.8 159.6 31.2 159.6H180C185.2 159.6 189.6 156.4 191.2 152C188 152.4 184.8 152.8 181.6 152.8C151.2 152.8 125.2 132.8 115.6 105.6H31.2zM181.2 28C150.4 28 125.6 52.8 125.6 83.6S150.4 139.2 181.2 139.2S236.8 114.4 236.8 83.6S212 28 181.2 28zM198 90.4H188.4V100C188.4 104 185.2 107.2 181.2 107.2S174 104 174 100V90.4H164.4C160.4 90.4 157.2000000000001 87.2 157.2000000000001 83.2S160.4 76 164.4 76H174V66.4C174 62.4 177.2 59.2000000000001 181.2 59.2000000000001S188.4 62.4 188.4 66.4V76H198C202 76 205.2 79.2 205.2 83.2S201.6 90.4 198 90.4z" />
    <glyph glyph-name="add-anchor-point"
      unicode="&#xEA17;"
      horiz-adv-x="256" d="M21.2 207.6H43.6V185.2C43.6 181.2 46.8 178 50.8 178S58 181.2 58 185.2V207.6H80.4C84.4 207.6 87.6 210.8 87.6 214.8S84 221.6 80.4 221.6H58V244C58 248 54.8 251.2 50.8 251.2S43.6 248 43.6 244V221.6H21.2C17.2 221.6 14 218.4 14 214.4S17.2 207.6 21.2 207.6zM237.6 172.4L180 229.6C176.4 233.2 171.6 235.2 166.4 235.2C161.2 235.2 156.4 233.2 152.8 229.6L144.4 221.2C136.8 213.6 136.8 201.6 144.4 194.4L148 190.8L60 149.6C54.8 147.2 51.2 142.8 49.2 137.6L14 32C11.6 24.8 13.6 16.4 18.8 11.2C22.8 7.2 28 5.2 33.2 5.2C35.2 5.2 37.6 5.6 39.6 6.4L145.2 41.6C150.4 43.2 154.8 47.2 157.2 52.4L198.4 140.8L202 137.2C205.6 133.6 210.4 131.6 215.6 131.6C220.8 131.6 225.6 133.6 229.2 137.2L237.6 145.6C241.2 149.2 243.2 154 243.2 159.2S241.2 168.8 237.6 172.4zM144.8 58C144 56.4 142.8 55.2 141.2 54.8L38.4 20.4L88.4 70.4C92.4 68.4 96.8 66.8 101.6 66.8C116.8 66.8 128.8 79.2 128.8 94S116.4 121.2 101.6 121.2S74.4 108.8 74.4 94C74.4 88.8 76 84 78.4 79.6L28 30L62.4 133.2C62.8 134.8 64 136.4 65.6 136.8L159.2 180L188 151.2L144.8 58zM88.4 94.4C88.4 101.6 94.4 107.6 101.6 107.6C108.8 107.6 114.8 101.6 114.8 94.4S108.8 81.2 101.6 81.2C94.4 80.8 88.4 86.8 88.4 94.4zM227.6 155.2L219.2 146.8C217.2 144.8 214 144.8 212 146.8L154.8 204.4C152.8 206.4 152.8 209.6 154.8 211.6L163.2 220C164 220.8 165.2 221.6 166.8 221.6S169.2 221.2 170.4 220L228 162.4C228.8 161.6 229.6 160.4 229.6 158.8C229.2 157.6 228.4 156.4 227.6 155.2z" />
    <glyph glyph-name="add-basket"
      unicode="&#xEA11;"
      horiz-adv-x="256" d="M226.4 182H184L148.8 217.2C150 220.4 151.2 224 151.2 228C151.2 240.8 140.8 251.2 128 251.2C115.2 251.2 104.8 240.8 104.8 228C104.8 224 105.6 220.8 107.2 217.6L72 182H29.6C19.6 182 11.6 174 11.6 164V155.6C11.6 146.8 18 139.2 26.4 137.6L50.4 47.2C51.2 44 54 42 57.2 42H76.8C84 20.4 104.4 4.8 128.4 4.8S172.8 20.4 180 42H199.6C202.8 42 205.6 44 206.4 47.2L230.4 137.6C238.8 139.2 245.2 146.4 245.2 155.6V164C244.8 174 236.4 182 226.4 182zM128 236.8C132.8 236.8 137.2 232.8 137.2 227.6C137.2 225.2 136.4 222.8 134.8 221.2C133.2 219.6 130.8 218.8 128.4 218.8C126 218.8 123.6 219.6 122 221.2C120.4 222.8 119.6 225.2 119.6 227.6C118.8 232.8 123.2 236.8 128 236.8zM117.6 207.6C120.8 206 124.4 205.2 128 205.2C132 205.2 135.2 206 138.4 207.6L164 182H92L117.6 207.6zM25.2 164C25.2 166.4 27.2 168 29.2 168H226C228.4 168 230 166 230 164V155.6C230 153.2 228 151.6 226 151.6H29.6C27.2 151.6 25.6 153.6 25.6 155.6V164zM128 18.8C108.8 18.8 92.8 32.4 88.4 50V50.4C87.6 53.2 87.6 56 87.6 59.2C87.6 81.6 106 100 128.4 100S169.2 81.6 169.2 59.2C169.2 56 168.8 53.2 168 50.4C163.2 32.4 147.2 18.8 128 18.8zM193.6 56H182.4V59.6C182.4 89.6 158 114.4 127.6 114.4C97.6 114.4 72.8 90 72.8 59.6V56H61.6L40 137.2H214.4L193.6 56zM144 66.8H135.2V75.6C135.2 79.6 132 82.8 128 82.8S120.8 79.6 120.8 75.6V66.8H112C108 66.8 104.8 63.6 104.8 59.6S108 52.4 112 52.4H120.8V43.6C120.8 39.6 124 36.4 128 36.4S135.2 39.6 135.2 43.6V52.4H144C148 52.4 151.2 55.6 151.2 59.6S148 66.8 144 66.8z" />
    <glyph glyph-name="add-cart-1"
      unicode="&#xEA12;"
      horiz-adv-x="256" d="M244 242H212C208.8 242 206 239.6 205.2 236.8L192.4 184.4H151.2C147.2 184.4 144 181.2 144 177.2S147.2 170 151.2 170H189.2L171.6 98.4H37.6L20.8 170.4H51.6C55.6 170.4 58.8 173.6 58.8 177.6S55.6 184.8 51.6 184.8H12C10 184.8 8 184 6.4 182C5.2 180.4 4.4 178 5.2 176L25.2 90.4C26 87.2000000000001 28.8 84.8 32 84.8H177.2C180.4 84.8 183.2 87.2000000000001 184 90L217.6 228H244C248 228 251.2 231.2 251.2 235.2S248 242 244 242zM154.4 62H54.4C40.8 62 30 51.2 30 37.6S40.8 13.2 54.4 13.2C68 13.2 78.8 24 78.8 37.6C78.8 41.2 78 44.8 76.4 48H132C130.4 44.8 129.6 41.2 129.6 37.6C129.6 24 140.4 13.2 154 13.2C167.6 13.2 178.4 24 178.4 37.6S167.6 62 154.4 62zM64.8 37.6C64.8 32 60 27.2 54.4 27.2S44 31.6 44 37.6S48.8 48 54.4 48S64.8 43.2 64.8 37.6zM154.4 27.2C148.8 27.2 144 32 144 37.6S148.8 48 154.4 48S164.8 43.2 164.8 37.6S160 27.2 154.4 27.2zM99.6 163.2C100.8 162 102.8 161.2 104.4 161.2S108 162 109.2 163.2L129.2 183.2C132 186 132 190.4 129.2 193.2S122 196 119.2 193.2L111.2 185.2V236C111.2 240 108 243.2 104 243.2S97.2 240 97.2 236V185.2L89.2 193.2C86.4 196 82 196 79.2 193.2S76.4 186 79.2 183.2L99.6 163.2z" />
    <glyph glyph-name="add-cart-2"
      unicode="&#xEA13;"
      horiz-adv-x="256" d="M244 242H212C208.8 242 206 239.6 205.2 236.8L192.4 184.4H151.2C147.2 184.4 144 181.2 144 177.2S147.2 170 151.2 170H189.2L171.6 98.4H37.6L20.8 170.4H51.6C55.6 170.4 58.8 173.6 58.8 177.6S55.6 184.8 51.6 184.8H12C10 184.8 8 184 6.4 182C5.2 180.4 4.4 178 5.2 176L25.2 90.4C26 87.2000000000001 28.8 84.8 32 84.8H177.2C180.4 84.8 183.2 87.2000000000001 184 90L217.6 228H244C248 228 251.2 231.2 251.2 235.2S248 242 244 242zM154.4 62H54.4C40.8 62 30 51.2 30 37.6S40.8 13.2 54.4 13.2C68 13.2 78.8 24 78.8 37.6C78.8 41.2 78 44.8 76.4 48H132C130.4 44.8 129.6 41.2 129.6 37.6C129.6 24 140.4 13.2 154 13.2C167.6 13.2 178.4 24 178.4 37.6S167.6 62 154.4 62zM64.8 37.6C64.8 32 60 27.2 54.4 27.2S44 31.6 44 37.6S48.8 48 54.4 48S64.8 43.2 64.8 37.6zM154.4 27.2C148.8 27.2 144 32 144 37.6S148.8 48 154.4 48S164.8 43.2 164.8 37.6S160 27.2 154.4 27.2zM89.2 210.8L97.2 218.8V168C97.2 164 100.4 160.8 104.4 160.8S111.6 164 111.6 168V219.2L119.6 211.2C120.8 210 122.8 209.2 124.4 209.2S128 210 129.2 211.2C132 214 132 218.4 129.2 221.2L109.2 241.2C106.4 244 102 244 99.2 241.2L79.2 221.2C76.4 218.4 76.4 214 79.2 211.2C82 208 86.4 208 89.2 210.8z" />
    <glyph glyph-name="add-cart"
      unicode="&#xEA14;"
      horiz-adv-x="256" d="M244 242.4H212C208.8 242.4 206 240 205.2 237.2L192.4 184.8H158.8V185.2C158.8 216.8 133.2 242.4 101.6 242.4C70 242.8 44 216.8 44 185.2V184.8H12C10 184.8 8 184 6.4 182C5.2 180.4 4.4 178 5.2 176L25.2 90.4C26 87.2 28.8 84.8 32 84.8H177.2C180.4 84.8 183.2 87.2 184 90L217.6 228H244C248 228 251.2 231.2 251.2 235.2S248 242.4 244 242.4zM101.6 228.8C125.6 228.8 144.8 209.2 144.8 185.6C144.8 183.6 144.8 181.6 144.4 179.6V179.2C141.2 158.4 123.2 142.4 101.6 142.4C77.6 142.4 58.4 162 58.4 185.6C58 209.2 77.6 228.8 101.6 228.8zM171.6 99.2H37.6L20.8 170.8H46C52.4 146 74.8 128 101.6 128S150.8 146.4 157.2 170.8H189.2L171.6 99.2zM154.4 62.4H54.4C40.8 62.4 30 51.6 30 38C30 24.4 40.8 13.6 54.4 13.6C68 13.6 78.8 24.4 78.8 38C78.8 41.6 78 45.2 76.4 48.4H132C130.4 45.2 129.6 41.6 129.6 38C129.6 24.4 140.4 13.6 154 13.6S178.4 24.4 178.4 38C178.8 51.2 167.6 62.4 154.4 62.4zM64.8 38C64.8 32.4 60 27.6 54.4 27.6S44 32 44 38S48.8 48.4 54.4 48.4S64.8 43.6 64.8 38zM154.4 27.2C148.8 27.2 144 32 144 37.6S148.8 48 154.4 48S164.8 43.2 164.8 37.6S160 27.2 154.4 27.2zM84.8 178.4H94.8V168.4C94.8 164.4 98 161.2 102 161.2S109.2 164.4 109.2 168.4V178.4H119.2C123.2 178.4 126.4 181.6 126.4 185.6S123.2 192.8 119.2 192.8H109.2V202.8C109.2 206.8 106 210 102 210S94.8 206.8 94.8 202.8V192.8H84.8C80.8 192.8 77.6 189.6 77.6 185.6S80.8 178.4 84.8 178.4z" />
    <glyph glyph-name="add-files"
      unicode="&#xEA18;"
      horiz-adv-x="256" d="M155.2 166.8H134.8V187.2C134.8 191.2 131.6 194.4 127.6 194.4S120.4 191.2 120.4 187.2V166.8H100C96 166.8 92.8 163.6 92.8 159.6S96 152.4 100 152.4H120.4V132C120.4 128 123.6 124.8 127.6 124.8S134.8 128 134.8 132V152.4H155.2C159.2 152.4 162.4 155.6 162.4 159.6S159.2 166.8 155.2 166.8zM199.2 250.8H56.8C45.6 250.8 36.8 241.6 36.8 230.8V95.2C36.8 89.6 39.2 84.4 43.2 80.8L118 10.4C121.6 6.8 126.8 4.8 132 4.8H200C211.2 4.8 220 14 220 24.8V230.8C219.2 242 210.4 250.8 199.2 250.8zM60.8 83.2H114.8C118 83.2 120.8 80.8 120.8 77.6V26.8L60.8 83.2zM205.2 25.2C205.2 22 202.4 19.2 199.2 19.2H135.2V77.6C135.2 88.4 126 97.2 115.2 97.2H50.8V230.8C50.8 234 53.6 236.8 56.8 236.8H199.2C202.4 236.8 205.2 234 205.2 230.8V25.2z" />
    <glyph glyph-name="add-group-alt"
      unicode="&#xEA15;"
      horiz-adv-x="256" d="M236.8 142.4C232 148.4 226 152.8 219.2 155.6C225.6 160.8 229.6 168.8 229.6 177.6C229.6 193.2 216.8 206 201.2 206C185.6 206 172.8 193.2 172.8 177.6C172.8 168.8 176.8 160.8 183.2 155.6C177.2 152.8 171.6 148.8 166.8 143.6C160.8 150 154 154.4 146.4 157.6C155.2 163.6 160.8 173.6 160.8 184.8C160.8 202.8 146 217.6 128 217.6C110 217.6 95.2 202.8 95.2 184.8C95.2 173.6 100.8 163.6 109.6 157.6C102 154.8 95.2 150 89.2 143.6C84.4 148.8 78.8 152.8 72.8 155.6C79.2 160.8 83.2 168.8 83.2 177.6C83.2 193.2 70.4 206 54.8 206C39.2 206 26.4 193.2 26.4 177.6C26.4 168.8 30.4 160.8 36.8 155.6C30.4 152.8 24.4 148.4 19.2 142.4C10.4 132 5.2 117.2 4.8 101.2C4.8 98.4 6.4 96 8.8 94.8C14.4 92 33.6 83.2 54.8 83.2C60.8 83.2 67.2 84 73.6 85.2C76 84 80 82 85.6 80C86 56.8 105.2 38 128.4 38C151.6 38 170.4 56.4 171.2000000000001 79.6C177.2000000000001 82 181.6000000000001 84 183.2000000000001 85.2C189.6000000000001 84 196.0000000000001 83.2 201.6000000000001 83.2C224.4000000000001 83.2 242.4000000000001 92 247.6000000000001 94.8C250.0000000000001 96 251.2000000000001 98.4 251.2000000000001 101.2C250.8000000000001 117.2 245.6000000000001 131.6 236.8000000000001 142.4zM201.2 192C209.2 192 215.6 185.6 215.6 177.6S209.2 163.2 201.2 163.2S186.8 169.6 186.8 177.6S193.6 192 201.2 192zM128 203.6C138.4 203.6 146.8 195.2 146.8 184.8S138.4 166 128 166S109.2 174.4 109.2 184.8S117.6 203.6 128 203.6zM54.8 192C62.8 192 69.2 185.6 69.2 177.6S62.8 163.2 54.8 163.2S40.4 169.6 40.4 177.6S46.8 192 54.8 192zM19.2 105.6C20 116.4 24 126.4 30 133.6C36.4 141.2 45.2 145.6 54.8 145.6C64 145.6 72.8 141.2 79.6 133.6L80.4 132.8C74.4 123.2 70.8 111.6 70 99.2C64.8 98.4 60 97.6 55.2 97.6C40 97.2 26.4 102.4 19.2 105.6zM128 52.4C112 52.4 99.2 65.2 99.2 81.2S112 110 128 110S156.8 97.2 156.8 81.2S144 52.4 128 52.4zM128 124C109.2 124 92.8 111.6 87.2 94.4C85.6 95.2 84.4 95.6 83.2 96C84 108.4 88 119.6 94 128.4C94.8 129.6 95.6 130.8 96.4 131.6C104.8 141.2 115.6 146.8 127.6 146.8S150.4 141.6 158.8 131.6C159.6 130.4 160.4 129.6 161.2 128.4L163.6 124.8C164 124.4 164 124 164.4 123.6L165.6 121.2C166 120.8 166 120 166.4 119.6C166.8000000000001 118.8 167.2000000000001 118 167.2000000000001 117.2C167.6000000000001 116.4 167.6000000000001 115.6 168.0000000000001 115.2C168.4000000000001 114.4 168.4000000000001 114 168.8000000000001 113.2S169.2000000000001 111.6 169.6000000000001 110.8C169.6000000000001 110.4 170.0000000000001 109.6 170.0000000000001 109.2C170.4000000000001 108.4 170.4000000000001 107.2 170.8000000000001 106.4C170.8000000000001 106 171.2000000000001 105.2 171.2000000000001 104.8C171.2000000000001 104 171.6000000000001 102.8 171.6000000000001 102C171.6000000000001 101.6 171.6000000000001 100.8 172.0000000000001 100.4C172.0000000000001 99.6 172.4000000000001 98.4 172.4000000000001 97.6V96.8C171.2000000000001 96.4 170.0000000000001 95.6 168.4000000000001 95.2C163.2000000000001 111.2 147.2000000000001 124 128.0000000000001 124zM201.2 97.2C196.4 97.2 191.6 97.6 186.4 98.8V99.2V100.4C186.4 102 186 103.2 186 104.8C186 105.2 186 106 185.6 106.4C185.2 107.6 185.2 108.8 184.8 110C184.8 110.4 184.4 111.2 184.4 111.6L183.2 116.4V116.8C182.8 118.4 182 119.6 181.6 121.2C181.2 121.6 181.2 122.4 180.8 122.8C180.4 124 180 124.8 179.6 126C179.2 126.4 179.2 127.2 178.8 127.6C178.4 128.8 177.6 129.6 177.2 130.8C176.8 131.2 176.8 131.6 176.4 132V132.4L177.2 133.2C183.6 140.8 192.4 145.2 202 145.2C211.2 145.2 220 140.8 226.8 133.2C232.8 126 236.8 116 237.6 105.2C230.4 102.4 216.8 97.2 201.2 97.2zM137.6 88H134.8V90.8C134.8 94.8 131.6 98 127.6 98S120.4 94.8 120.4 90.8V88H117.6C113.6 88 110.4 84.8 110.4 80.8S113.6 73.6 117.6 73.6H120.4V70.8C120.4 66.8 123.6 63.6 127.6 63.6S134.8 66.8 134.8 70.8V73.6H137.6C141.6 73.6 144.8 76.8 144.8 80.8S141.6 88 137.6 88z" />
    <glyph glyph-name="add-group"
      unicode="&#xEA16;"
      horiz-adv-x="256" d="M148.4 78H144.4V82C144.4 86 141.2 89.2 137.2 89.2S130 86 130 82V78H126C122 78 118.8 74.8 118.8 70.8S122 63.6 126 63.6H130V59.6C130 55.6 133.2 52.4 137.2 52.4S144.4 55.6 144.4 59.6V63.6H148.4C152.4 63.6 155.6 66.8 155.6 70.8S152.4 78 148.4 78zM229.2 134.4C220 145.6 208 153.2 195.2 157.2C208 164 216.8 177.6 216.8 193.2C216.8 216 198.4 234.4 176 234.4S134.8 216 134.8 193.2C134.8 177.6 143.6 164 156.4 157.2C143.6 153.2 132 145.6 122.4 134.4L118.8 129.6C112.8 133.6 106.4 136.8 99.6 138.8C112.4 145.6 121.2 159.2 121.2 174.8C121.2 197.6 102.8 216 80 216C57.2 216 38.8 197.6 38.8 174.8C38.8 159.2 47.6 145.6 60.4 138.8C48 134.8 36 127.2 26.8 116C13.2 100 5.6 77.6 5.2 53.2C5.2 50.4 6.8 48 9.2 46.8C17.6 42.4 48 28.8 80.4 28.8C89.6 28.8 99.2 30 109.2 32C117.2 26 127.2 22 138 22C156 22 172 32.4 180 47.2C213.2 48 240 61.2 247.6 65.2C250 66.4 251.2 68.8 251.2 71.6C250.8 95.6 242.8 118 229.2 134.4zM176 220.4C190.8 220.4 203.2 208.4 203.2 193.2S191.2 166 176 166S148.8 178 148.8 193.2S160.8 220.4 176 220.4zM80 202C94.8 202 107.2 190 107.2 174.8S95.2 148 80 148S52.8 160 52.8 175.2S65.2 202 80 202zM19.2 57.2C20.4 76.8 26.8 94 37.6 106.8C48.8 120 64 127.6 80.4 127.6C94.4 127.6 107.6 122 118 112.4C101.6 104.8 90.4 88.4 90.4 69.2C90.4 60 93.2 51.2 98 44C92 43.2 86 42.8 80.4 42.8C54.8 42.8 30.4 52.4 19.2 57.2zM137.6 35.6C119.2 35.6 104 50.8 104 69.2S119.2 102.8 137.6 102.8S171.2 87.6 171.2 69.2S156 35.6 137.6 35.6zM184.4 61.2C184.8 64 185.2 66.4 185.2 69.2C185.2 95.2 164 116.8 137.6 116.8C136 116.8 134.4 116.8 132.8 116.4L129.2 120L132.8 124.8C144 138 159.2 145.6 175.2 145.6C191.6 145.6 206.8 138.4 218 124.8C228.8 112 235.2 94.4 236.4 74.8C227.6 70.8 208 62.8 184.4 61.2z" />
    <glyph glyph-name="add-notification"
      unicode="&#xEA19;"
      horiz-adv-x="256" d="M191.6 245.2C164.4 245.2 141.2 226.8 134.4 201.6C124.4 206.8 113.2 210 102 211.2V227.6C102 231.6 98.8 234.8 94.8 234.8S88 231.6 88 227.6V210.8H85.2C45.2 206.4 15.2 174 15.2 136V64.8C14.8 61.2 14 59.2 13.2 58L6.4 46.8C4.4 43.6 4 40 6 36.8L6.4 36C8.4 32.8 11.6 31.2 15.2 31.2H88V17.6C88 13.6 91.2 10.4 95.2 10.4S102.4 13.6 102.4 17.6V31.2H175.6C179.2 31.2 182.4 32.8 184 36C186 39.2 186 43.6 184 46.4L177.2 57.2C175.6 59.6 175.2 61.6 175.2 64.4V128.8C180.4 127.2 186.4 126.4 192 126.4C224.8 126.4 251.6 153.2 251.6 186C251.2 218.4 224.4 245.2 191.6 245.2zM164.8 50L167.6 45.6H95.2H22L25.2 51.2C27.2 54.8 28.4 58.4 28.8 63.6V136.4C28.8 167.6 53.6 193.6 86.4 197.2C102.8 199.2 118.8 195.2 132 186.8V186C132 164.4 143.6 146 160.4 135.2V64.4C160.8 59.2 162 54.8 164.8 50zM191.6 140.4C166.4 140.4 146 160.8 146 186S166.4 231.2 191.6 231.2S237.2 210.8 237.2 185.6S216.8 140.4 191.6 140.4zM206.4 192.8H198.4V200.8C198.4 204.8 195.2 208 191.2 208S184 204.8 184 200.8V192.8H176C172 192.8 168.8000000000001 189.6 168.8000000000001 185.6S172 178.4 176 178.4H184V170.4C184 166.4 187.2 163.2 191.2 163.2S198.4 166.4 198.4 170.4V178.4H206.4C210.4 178.4 213.6 181.6 213.6 185.6S210.4 192.8 206.4 192.8z" />
    <glyph glyph-name="add-server"
      unicode="&#xEA1A;"
      horiz-adv-x="260" d="M183.2 152.4V174V210.4V210.8C183.2 234.4 138.8 246.8 95.2 246.8S7.2 234.4 7.2 210.8V109.2C7.2 85.6 52.4 73.2 95.2 73.2C100 73.2 105.2 73.6 110 73.6C113.6 37.2 144.4 8.8 181.6 8.8C221.2 8.8 253.6 41.2 253.6 80.8C253.2 120 221.6 151.6 183.2 152.4zM21.2 190.8C37.6 180.4 66.4 175.2 95.2 175.2C124 175.2 152.8 180.4 169.2 190.8V174.8C168.8 166 139.6 152.8 95.2 152.8S21.2 166 21.2 174.8V190.8zM169.2 154.4V151.6C164.4 150.8 160 149.6 155.6 148C160.4 149.6 165.2 152 169.2 154.4zM95.2 232.8C139.6 232.8 169.2 219.6 169.2 210.8C168.8 202 139.6 188.8 95.2 188.8S21.2 202 21.2 210.8S50.4 232.8 95.2 232.8zM21.2 154.4C37.6 144 66.4 138.8 95.2 138.8C117.2 138.8 138.8 142 155.6 148C142 142.8 130.8 133.6 122.4 122C113.6 120.8 104.4 120.4 95.2 120.4C50.8 120.4 21.2 133.6 21.2 142.4V154.4zM21.2 109.6V122C37.6 111.6 66.4 106.4 95.2 106.4C101.6 106.4 108.4 106.8 114.4 107.2000000000001C112 101.2000000000001 110.4 94.8 109.6 88.4C104.8 88 100 88 94.8 88C49.2 87.2 21.2 101.6 21.2 109.6zM181.2 23.2C149.2 23.2 123.2 49.2 123.2 81.2S149.2 139.2 181.2 139.2S239.2 113.2 239.2 81.2C239.2 48.8 213.2 23.2 181.2 23.2zM198.8 88H188V98.4C188 102.4 184.8 105.6 180.8 105.6S173.6 102.4 173.6 98.4V88H163.2C159.2 88 156 84.8 156 80.8S159.2 73.6 163.2 73.6H173.6V63.2C173.6 59.2 176.8 56 180.8 56S188 59.2 188 63.2V73.6H198.4C202.4 73.6 205.6 76.8 205.6 80.8S202.4 88 198.8 88z" />
    <glyph glyph-name="add-user-alt"
      unicode="&#xEA1B;"
      horiz-adv-x="256" d="M82.4 114.4C104 114.4 121.6 132 121.6 153.6S104 192.8 82.4 192.8S43.2 175.2 43.2 153.6C43.6 132 60.8 114.4 82.4 114.4zM82.4 178.8C96.4 178.8 107.6 167.6 107.6 153.6S96.4 128.4 82.4 128.4S57.2 139.6 57.2 153.6S68.8 178.8 82.4 178.8zM82.4 102.8C54.8 102.8 28 93.2 7.2 75.6C4.4 73.2 4 68.8 6.4 65.6C8.8 62.8 13.2 62.4 16.4 64.8C34.8 80.4 58 88.8 82.4 88.8S130 80.4 148.4 64.8C149.6 63.6 151.2 63.2 152.8 63.2C154.8 63.2 156.8 64 158 65.6C160.4 68.4 160 72.8 157.2 75.6C136.8 93.2 110 102.8 82.4 102.8zM244 106.8H230V120.8C230 124.8 226.8 128 222.8 128S216 124.8 216 121.2V107.2H202C198 107.2 194.8 104 194.8 100S198 92.8 202 92.8H216V78.8C216 74.8 219.2 71.6000000000001 223.2 71.6000000000001S230.4 74.8 230.4 78.8V92.8H244C248 92.8 251.2 96 251.2 100S248 106.8 244 106.8z" />
    <glyph glyph-name="add-user"
      unicode="&#xEA1C;"
      horiz-adv-x="256" d="M182.8 123.2C180.4 123.2 178.4 123.2 176 122.8V123.2C162.8 138.8 146.4 149.2 128 153.2C146.4 160.8 159.6 179.2 159.6 200.4C159.6 228.4 136.8 251.2 108.8 251.2C80.8 251.2 58 228.4 58 200.4C58 179.2 71.2 160.8 89.6 153.2C71.2 148.8 54.8 138.8 41.6 123.2C24.4 102.8 14.8 74.4 14 43.6C14 40.8 15.6 38.4 18 37.2C28.8 31.6 67.6 14 108.8 14C120.8 14 133.6 15.2 146.4 18C156.4 10 169.2 5.2 183.2 5.2C216 5.2 242.4 31.6 242.4 64.4C242 96.8 215.6 123.2 182.8 123.2zM72 200C72 220.4 88.4 236.8 108.8 236.8S145.6 220.4 145.6 200S129.2 163.2 108.8 163.2S72 180 72 200zM28 47.6C29.2 73.6 37.6 97.2 52 114C66.8 131.6 86.8 141.2 108.4 141.2C128 141.2 146 133.2 160.4 118.8C138.8 110 123.6 88.8 123.6 64C123.6 51.2 127.6 39.6 134.4 30C125.6 28.8 116.8 28 108.4 28C74.4 28 42 41.2 28 47.6zM182.8 18.8C158 18.8 137.6 39.2 137.6 64S158 109.2 182.8 109.2S228 89.2 228 64S207.6 18.8 182.8 18.8zM196.8 73.2H190V80C190 84 186.8 87.2 182.8 87.2S176 84 176 80.4V73.6H169.2C165.2 73.6 162 70.4 162 66.4S165.2 59.2 169.2 59.2H176V52.4C176 48.4 179.2 45.2 183.2 45.2S190.4 48.4 190.4 52.4V59.2H197.2C201.2 59.2 204.4 62.4 204.4 66.4S200.8 73.2 196.8 73.2z" />
    <glyph glyph-name="adobe"
      unicode="&#xEA1D;"
      horiz-adv-x="256" d="M160 231.6H252V25.2L160 231.6zM96 231.6H4V25.2L96 231.6zM128 154.4L185.6 24H146.8L130 65.6H87.6L128 154.4z" />
    <glyph glyph-name="aeroplane-delivery"
      unicode="&#xEA1E;"
      horiz-adv-x="256" d="M229.6 61.2L206.8 106L224 123.2C228.8 128 231.6 134.8 231.6 141.6C231.6 148.4 228.8 155.2 224 160C219.2 164.8 212.4 167.6 205.6 167.6C198.8 167.6 192 164.8 187.2 160L170 142.8L156 150C156.4 151.6 156.8 153.6 156.8 155.2V210.4C156.8 214 155.6 217.6 153.6 220.8L153.2 221.2C151.2 223.6 148.8 225.6 146 227.2L98 249.2C93.2 251.6 87.6 251.6 82.4 249.2L34.4 227.2C32 226 29.6 224 27.6 221.6C27.6 221.2 27.2 221.2 27.2 220.8L26.8 220.4C24.8 217.2 24 214 24 210.4V154.8C24 147.6 28 141.6 34 138.4L82 114.4C84.8 113.2 87.6 112.4 90.4 112.4C93.2 112.4 96 113.2 98.8 114.4L116 123.2L137.2 107.6L111.6 81.6L100 89.2C92.4 94.4 81.2 93.2 74.8 86.8C70.4 82.4 68.4 76.4 69.2 70C70 64 73.6 58.4 78.8 55.2L104 40L119.2 14.4C122.8 8.4 129.2 4.8 136.4 4.8C141.6 4.8 146.8 6.8 150.4 10.8C157.2 17.6 158.4 28 153.2 36L145.6 47.6L171.6 73.2L195.6 40.4C199.2 35.2 205.6 32.4 211.6 32.4C216.8 32.4 222 34.4 225.6 38.4C232.4000000000001 44 233.6 53.2 229.6 61.2zM88.8 236.4C89.2 236.8 90 236.8 90.8 236.8S92 236.8 92.8 236.4L134 217.6L120.8 211.2L78.4 232L88.8 236.4zM90.4 196.8L47.2 217.6L62 224.4L104.4 203.2L90.4 196.8zM40.4 150.8C38.8 151.6 38 153.2 38 154.8V206.8L83.6 184.4V129.2L40.4 150.8zM97.6 129.2V184.4L113.2 192V177.2C113.2 173.2 116.4 170 120.4 170S127.6 173.2 127.6 177.2V199.2L143.6 206.8V154.8C143.6 153.2 142.8 151.6 141.2 150.8L97.6 129.2zM216 47.6C213.6 45.2 209.2 45.6 206.8 48.4L180.8 84C178.8 86.4 176 88.4 172.8 88.4C169.6 88.8 166.4 87.6 164.4 85.2L131.6 53.2C129.2 50.8 128.8 47.2 130.8 44.4L141.6 28C143.2 25.6 142.8 22.4 140.8 20.4C138 17.6 133.2 18.4 131.6 21.6L115.2 48.4C114.8 49.2 113.6 50 112.8 50.8L86 66.8C84 68 83.2 70 83.2 71.2C82.8 73.2 83.6 74.8 84.8 76.4C86.8 78.4 90 78.8 92.4 77.2L108.8 66.4C111.6 64.4 115.2 64.8 117.6 67.2L150 99.6C152 101.6 153.2 104.8 153.2 108C152.8 111.2 151.6 114 148.8 116L130.4 129.6L147.2 138H147.6L166.4 128.4C170.4 126.4 175.6 127.2000000000001 178.8 130.4L197.6 149.6C200 152.0000000000001 202.8 153.2000000000001 206 153.2000000000001S212.4 152 214.4 149.6C216.8000000000001 147.2000000000001 218 144.4 218 141.2000000000001S216.8000000000001 134.8 214.4 132.8L195.6 114C192 110.8 191.2 105.6 193.6 101.2L217.6 54.4C218.4 52.4 218 49.6 216 47.6z" />
    <glyph glyph-name="agenda"
      unicode="&#xEA1F;"
      horiz-adv-x="256" d="M188 250.8H68C57.6 250.8 48.8 242.4 48.8 231.6V49.6C48.8 39.6 56.4 31.6 66 30.8V16C66 12.4 70.4 10.4 73.2 12.8L73.6 13.2C75.2 14.4 77.6 14.4 79.2 13.2L79.6 12.8C82.4 10.4 86.8 12.4 86.8 16V30.8H188C198.4 30.8 207.2 39.2 207.2 50V232C207.2 242.4 198.4 250.8 188 250.8zM161.6 175.2H193.2V117.2H161.6V175.2zM147.6 117.2H62.8V175.2H147.6V117.2zM193.2 232V189.2H161.6V236.8H188C190.8 236.8 193.2 234.8 193.2 232zM68 236.8H147.6V189.2H62.8V232C62.8 234.8 65.2 236.8 68 236.8zM62.8 50V103.2H147.6V45.2H68C65.2 45.2 62.8 47.2 62.8 50zM188 45.2H161.6V103.2H193.2V50C193.2 47.2 190.8 45.2 188 45.2z" />
    <glyph glyph-name="ai-alt"
      unicode="&#xEA20;"
      horiz-adv-x="256" d="M168.8 241.2C157.2 247.6 143.6 251.2 129.2 251.2H128.8C108 250.8 88.4 244.4 73.6 232C54 216 42.8 192 42.8 166.8V100.8C42.8 94 48.4 88.4 55.2 88.4H64.8C69.6 69.6 84.8 54.4 104 49.2L110 47.6V17.2C110 10.4 115.6 4.8 122.4 4.8H201.6C208.4 4.8 214 10.4 214 17.2V166.8C213.2 198 196.8000000000001 225.6 168.8 241.2zM199.2 18.8H123.2V58.4L107.2 62.8C91.6 67.2 80 80 77.2 96L76.4 102.4H56.8V166.8C56.8 188 66 207.6 82.4 221.2C94.8 231.6 111.2 237.2 129.2 237.2C141.2 237.2 152.8 234.4 162 229.2C185.2 216 199.2 192.8 199.2 167.2V18.8zM168.8 166.8C172.8 166.8 176 170 176 174S172.8 181.2 168.8 181.2H161.6C161.6 187.2 156.8 192 150.8 192V201.2C150.8 205.2 147.6 208.4 143.6 208.4S136.4 205.2 136.4 201.2V192H120V201.2C120 205.2 116.8 208.4 112.8 208.4S105.6 205.2 105.6 201.2V192C99.6 192 94.8 187.2 94.8 181.2H87.6C83.6 181.2 80.4 178 80.4 174S83.6 166.8 87.6 166.8H94.8V150H87.6C83.6 150 80.4 146.8 80.4 142.8S83.6 135.6 87.6 135.6H94.8C94.8 129.6 99.6 124.8 105.6 124.8V117.6C105.6 113.6 108.8 110.4 112.8 110.4S120 113.6 120 117.6V124.8H136.8V117.6C136.8 113.6 140 110.4 144 110.4S151.2 113.6 151.2 117.6V124.8C157.2 124.8 162 129.6 162 135.6H169.2C173.2 135.6 176.4 138.8 176.4 142.8S173.2 150 169.2 150H162V166.8H168.8zM108.8 138.8V177.6H147.6V138.8H108.8z" />
    <glyph glyph-name="ai"
      unicode="&#xEA21;"
      horiz-adv-x="256" d="M206.8 214.4L158.4 247.6C155.2 250 151.2 251.2 147.2 251.2H60.4C49.6 251.2 40.4 242.4 40.4 231.2V24.8C40.4 14 49.2 4.8 60.4 4.8H196C206.8 4.8 216 13.6 216 24.8V198C215.6 204.8 212.4 210.8 206.8 214.4zM201.6 24.8C201.6 21.6 198.8 18.8 195.6 18.8H60.4C57.2 18.8 54.4 21.6 54.4 24.8V231.2C54.4 234.4 57.2 237.2 60.4 237.2H147.6C148.8 237.2 150 236.8 150.8 236L199.2 202.8C200.8 201.6 201.6 200 201.6 198V24.8zM114.4 141.2C113.2 143.2 110.8 144.8 108.4 144.8S103.6 143.6 102.4 141.2L70.8 86C68.8 82.8 70 78.4 73.6 76.4C76.8 74.4 81.2 75.6 83.2 79.2L90 91.2H126.8L133.6 79.2C134.8 76.8 137.2 75.6 139.6 75.6C140.8 75.6 142 76 143.2 76.4C146.4 78.4 147.6 82.4 146 86L114.4 141.2000000000001zM98 105.6L108.4 124L118.8 105.6H98zM169.2 116.4C165.2 116.4 162 113.2 162 109.2V82.4C162 78.4 165.2 75.2 169.2 75.2S176.4 78.4 176.4 82.4V109.2C176.4 113.6 173.2 116.4 169.2 116.4zM160.8 133.6A8.4 8.4 0 0 1 177.6 133.6A8.4 8.4 0 0 1 160.8 133.6" />
    <glyph glyph-name="air-conditioner-2"
      unicode="&#xEA22;"
      horiz-adv-x="256" d="M232 188H24C13.6 188 4.8 179.6 4.8 168.8V86.4C5.2 76.4 13.6 68 24 68H232C242.4 68 251.2 76.4 251.2 87.2V169.2C251.2 179.6 242.4 188 232 188zM24 174H232C234.8 174 237.2 171.6 237.2 168.8V120H19.2V169.2C19.2 172 21.2 174 24 174zM121.2 106.4V82H77.2V106.4H121.2zM135.2 106.4H179.2V82H135.2V106.4zM19.2 86.8V106.4H63.2V82H24C21.2 82 19.2 84 19.2 86.8zM232 82H192.8V106.4H236.8V86.8C237.2 84 234.8 82 232 82zM182.8 140.4H208.4C212.4 140.4 215.6 143.6 215.6 147.6S212.4 154.8 208.4 154.8H182.8C178.8 154.8 175.6 151.6 175.6 147.6S178.8 140.4 182.8 140.4z" />
    <glyph glyph-name="air-conditioner"
      unicode="&#xEA23;"
      horiz-adv-x="256" d="M232 218.4H24C13.6 218.4 4.8 210 4.8 199.2V126.8C5.2 112 17.2 100 32 100H224C238.8 100 251.2 112 251.2 127.2V199.2C251.2 209.6 242.4 218.4 232 218.4zM24 204.4H232C234.8 204.4 237.2 202 237.2 199.2V149.6H19.2V199.2C19.2 202 21.2 204.4 24 204.4zM224 114H32C24.8 114 18.8 120 18.8 127.2V136H236.8V127.2C237.2 119.6 231.2 114 224 114zM50.8 82.4C46.8 82.4 43.6 79.2 43.6 75.2V59.6C43.6 55.2 40 51.6 35.6 51.6H20.4C16.4 51.6 13.2 48.4 13.2 44.4S16.4 37.2 20.4 37.2H36C48 37.2 58 47.2 58 59.2000000000001V74.8C58 79.2000000000001 54.8 82.4 50.8 82.4zM100.8 82.4C96.8 82.4 93.6 79.2 93.6 75.2V59.6C93.6 55.2 90 51.6 85.6 51.6H70C66 51.6 62.8 48.4 62.8 44.4S66 37.2 70 37.2H85.6C97.6 37.2 107.6 47.2 107.6 59.2000000000001V74.8C108 79.2000000000001 104.8 82.4 100.8 82.4zM235.6 51.6H220C215.6 51.6 212 55.2 212 59.6V75.2C212 79.2 208.8 82.4 204.8 82.4S197.6 79.2 197.6 75.2V59.6C197.6 47.6 207.6 37.6 219.6 37.6H235.2C239.2 37.6 242.4 40.8 242.4 44.8S239.6 51.6 235.6 51.6zM185.6 51.6H170C165.6 51.6 162 55.2 162 59.6V75.2C162 79.2 158.8 82.4 154.8 82.4S148 79.2 148 75.2V59.6C148 47.6 158 37.6 170 37.6H185.6C189.6 37.6 192.8 40.8 192.8 44.8S189.6 51.6 185.6 51.6z" />
    <glyph glyph-name="air-flow"
      unicode="&#xEA24;"
      horiz-adv-x="256" d="M247.6 46.4L225.2 60C212.8 67.6 197.6 67.6 185.2 60L179.2 56.4C171.2 51.6 161.6 51.6 153.6 56.4L148 60C135.6 67.6 120.4 67.6 108 60L102 56.4C94 51.6 84.4 51.6 76.4 56.4L70.8 60C58.4 67.6 43.2 67.6 30.8 60L8.4 46.4C5.2 44.4 4 40 6 36.8C7.2 34.8 9.6 33.6 12 33.6C13.2 33.6 14.4 34 15.6 34.8L38 48C46 52.8 55.6 52.8 63.6 48L69.6 44.4C82 36.8 97.2 36.8 109.6 44.4L115.6 48C123.6 52.8 133.2 52.8 141.2 48L147.2 44.4C159.6 36.8 174.8 36.8 187.2 44.4L193.2 48C201.2 52.8 210.8 52.8 218.8 48L241.2 34.4C244.4 32.4 248.8 33.6 250.8 36.8C252 40 250.8 44.4 247.6 46.4zM247.6 124.8L225.2 138.4C212.8 146 197.6 146 185.2 138.4L179.2 134.8C171.2 130 161.6 130 153.6 134.8L148 138.4C135.6 146 120.4 146 108 138.4L102 134.8C94 130 84.4 130 76.4 134.8L70.4 138.4C58 146 42.8 146 30.4 138.4L8 124.8C4.8 122.8 3.6 118.4 5.6 115.2C8 112 12.4 110.8 15.6 112.8L38 126.4C46 131.2 55.6 131.2 63.6 126.4L69.6 122.8C82 115.2 97.2 115.2 109.6 122.8L115.6 126.4C123.6 131.2 133.2 131.2 141.2 126.4L147.2 122.8C159.6 115.2 174.8 115.2 187.2 122.8L193.2 126.4C201.2 131.2 210.8 131.2 218.8 126.4L241.2 112.8C242.4 112 243.6 111.6 244.8 111.6C247.2 111.6 249.6 112.8 250.8 114.8C252 118.4 250.8 122.8 247.6 124.8zM15.6 191.6L38 205.2C46 210 55.6 210 63.6 205.2L69.6 201.6C82 194 97.2 194 109.6 201.6L115.6 205.2C123.6 210 133.2 210 141.2 205.2L147.2 201.6C159.6 194 174.8 194 187.2 201.6L193.2 205.2C201.2 210 210.8 210 218.8 205.2L241.2 191.6C242.4 190.8 243.6 190.4 244.8 190.4C247.2 190.4 249.6 191.6 250.8 193.6C252.8 196.8 251.6 201.2 248.4 203.2L226 216.8C213.6 224.4 198.4 224.4 186 216.8L180 213.2C172 208.4 162.4 208.4 154.4 213.2L148 217.2C135.6 224.8 120.4 224.8 108 217.2L102 213.6C94 208.8 84.4 208.8 76.4 213.6L70.4 217.2C58 224.8 42.8 224.8 30.4 217.2L8 203.6C4.8 201.6 3.6 197.2 5.6 194S12.4 189.6 15.6 191.6z" />
    <glyph glyph-name="air-mail"
      unicode="&#xEA25;"
      horiz-adv-x="256" d="M106 4.8C104.8 4.8 103.6 4.8 102.8 5.2C94.4 6.4 87.2 10.8 82.8 18L58.4 58.4L18.4 82.4C11.2 86.8 6.4 94 5.6 102.4C4.4 110.8 7.6 119.2000000000001 13.6 125.2000000000001C22.8 134.4 37.2 135.6000000000001 48 128.8000000000001L68.4 115.2000000000001L114 161.2000000000001L58 201.6000000000001C51.6 206.4 47.6 213.6000000000001 46.8 221.6000000000001S49.2 237.2000000000001 54.8 242.8000000000001C63.2 251.6 76 253.6 86.4 248L159.2 210.8L188.4 240C195.2 246.8 204.4 250.8 214.4 250.8C224 250.8 233.2 246.8 240.4 240C247.2 233.2 251.2 223.6 251.2 214C251.2 204 247.2 194.8 240.4 188L211.2 159.2L248 86.8C253.6 76.4 251.6 63.6 242.8 55.2C237.2 49.6 229.2 46.8 221.6 47.2C213.6 48 206.4 52 201.6 58.4L161.2 113.2L115.2 68L128.8 47.2C136 36.4 134.4 22 125.2 12.8C120 7.6 113.2 4.8 106 4.8zM32.4 119.2C28.8 119.2 25.6 118 22.8 115.2S18.4 108.4 18.8 104C19.2 100 21.6 96.4 25.2 94.4L66.8 69.2C67.6 68.8 68.4 68 69.2 66.8L94.4 25.2C96.4 21.6 100 19.2 104 18.8C108 18.4 112 19.6 115.2 22.4C119.6 26.8 120.4 34 116.8 39.2L100 64.8C98 67.6 98.4 71.2 100.8 73.6L152.4 124C155.2 126.8 158.8 128 162.4 127.6C166 127.2 169.6 125.2 171.6 122.4L212.8 66.4C215.2 63.2 218.8 61.2 222.4 61.2C226.4 60.8 230 62.4 232.8 65.2C236.8 69.2 238 75.6 235.2 80.8L197.6 154C195.2 159.2 196 165.2 200 169.2L229.6 198.4C234.0000000000001 202.8 236.4000000000001 208.4 236.4000000000001 214.4S234.0000000000001 226.4000000000001 229.6 230.4000000000001C225.2 234.8 219.6 237.2 213.6 237.2S202 234.8 197.6 230.4000000000001L168 200.8C164 196.8 158 196 152.8 198.4L80 235.6C74.8 238.4 68.8 237.2 64.4 233.2C61.6 230.4 60.4 226.8 60.4 222.8C60.8 218.8 62.8 215.2 66 213.2L122.4 172C125.6 169.6 127.2 166.4 127.6 162.4C128 158.8 126.4 154.8 124 152.4L73.6 101.6C71.2 99.2 67.6 98.8 64.8 100.8L39.6 117.2C37.2 118.4 34.8 119.2 32.4 119.2zM235.2 192.8z" />
    <glyph glyph-name="air"
      unicode="&#xEA26;"
      horiz-adv-x="256" d="M230 208.8C230 230 212.8 247.2 191.6 247.2C187.6 247.2 184.4 244 184.4 240S187.6 232.8 191.6 232.8C205.2 232.8 216 222 216 208.4C216 194.8 205.2 184 191.6 184H12C8 184 4.8 180.8 4.8 176.8S8 170.4 12 170.4H191.6C212.8 170.4 230 187.6 230 208.8zM48.4 131.2C44.4 131.2 41.2 128 41.2 124S44.4 116.8 48.4 116.8H172C176 116.8 179.2 120 179.2 124S176 131.2 172 131.2H48.4zM212.8 77.2H32.8C28.8 77.2 25.6 74 25.6 70S28.8 62.8 32.8 62.8H212.4C226 62.8 236.8 52 236.8 38.4C236.8 31.6 234 25.2 228.8 20.4C226 17.6 225.6 13.2 228.4 10.4C229.6 8.8 231.6 8 233.6 8C235.2 8 236.8 8.8 238.4 10C246.4 17.2 250.8 27.6 250.8 38.4C251.2 60 233.6 77.2 212.8 77.2z" />
    <glyph glyph-name="airbnb"
      unicode="&#xEA27;"
      horiz-adv-x="256" d="M128 63.2C114 80.8 106 96 103.2 109.6C90.8 158.8 165.6 158.8 153.2 109.6C150 96 141.6 80 128 63.2zM204 22.8C180.8 12.8 157.6 28.8 138 50.4C195.6 122.4 164 161.6 128 161.6C97.6 161.6 80.8 136.4 87.6 106C91.6 89.6 101.6 71.6 118 50.8C100 31.2 84.8 21.6 70.8 20.4C43.2 16 21.6 42.8 32 70.4C40.4 92 94 198.4 96.4 204C104.8 220.8 110.4 235.6 129.2 235.6C147.2 235.6 153.6 221.6 162.4 202.4C182.8 163.6 212 104.4 226 70.4C232 52.4 224.4 31.2 204 22.8zM230.4 98C158.8 249.6 154.8 252 128 252C102.8 252 92 234.4 81.2 212C22 94 16.8 78 15.6 76C2 37.6 30.8 4 65.2 4C77.2 4 99.2 7.2 127.6 38.4C160.4 2.8 184 4 190 4C224.8 4 253.6 38 239.6 76C240 78.4 230.4 97.6 230.4 98z" />
    <glyph glyph-name="airport"
      unicode="&#xEA28;"
      horiz-adv-x="256" d="M234 200.4H197.2V236.8H215.2C219.2 236.8 222.4 240 222.4 244S219.2 251.2 215.2 251.2H40.8C36.8 250.8 33.6 248 33.6 244S36.8 236.8 40.8 236.8H58.8V200H22C11.6 200 2.8 191.6 2.8 180.8V24C2.8 13.6 11.2 4.8 22 4.8H234.4C244.8 4.8 253.6 13.2 253.6 24V181.2C253.2 191.6 244.4 200.4 234 200.4zM72.8 236.8H183.2V200H72.8V236.8zM239.2 24C239.2 21.2 236.8 18.8 234 18.8H22C19.2 18.8 16.8 21.2 16.8 24V181.2C16.8 184 19.2 186.4 22 186.4H234.4C237.2 186.4 239.6 184 239.6 181.2V24zM184.4 114.8H164L144.8 151.6C143.2 155.2 138.8 156.4 135.2 154.4C131.6 152.8 130.4 148.4 132.4 144.8L148.4 114.4H100.8L89.6 136.4C88 140 83.6 141.2 80 139.2C76.4 137.6 75.2 133.2 77.2 129.6L88.8 107.2L77.2 84.8C75.6 81.2 76.8 77.2 80 75.2C81.2 74.8 82 74.4 83.2 74.4C85.6 74.4 88 75.6 89.6 78L100.8 100H148.4L132.4 69.6C130.8 66 132 62 135.2 60C136.4 59.6 137.2 59.2 138.4 59.2C140.8 59.2 143.2 60.4 144.8 62.8L164 99.6H184.4C188.4 99.6 191.6 102.8 191.6 106.8S188.4 114.8 184.4 114.8z" />
    <glyph glyph-name="alarm-2"
      unicode="&#xEA29;"
      horiz-adv-x="256" d="M241.6 59.6L225.2 97.2C223.2 101.6 222.4 106.4 222.4 111.6V144.4C222.4 168 212 190.4 193.6 207.2C177.6 221.6 156.8 230 134.8 231.6V244C134.8 248 131.6 251.2 127.6 251.2S121.2 248 121.2 244V231.6C119.6 231.6 118 231.2 116.4 231.2C69.2 225.6 33.6 188 33.6 142.8V111.2C33.6 106.4 32.8 101.6 30.8 96.8L14.4 59.2C10.4 50.4 11.6 40.4 16.8 32C22 24 31.2 18.8 40.8 18.8H121.2V11.2C121.2 7.2 124.4 4 128 4C132 4 134.8 7.2 135.2 10.8V18.4H215.6C225.2 18.4 234.4 23.2 239.6 31.6C244.8 40.8 245.6 50.8 241.6 59.6zM227.6 40.4C224.8 36 220.4 33.6 215.2 33.6H40.8C35.6 33.6 31.2 36 28.4 40.4C25.6 44.4 25.2 49.6 27.2 54.4L43.6 92C46.4 98.4 47.6 105.2 47.6 112V143.6C47.6 181.2 78 213.2 118 217.6C121.2 218 124.8 218 128 218C149.2 218 169.2 210.4 184.4 196.8C200 182.8 208.4 164.4 208.4 144.8V112C208.4 105.2 209.6 98.4 212.4 92L228.8 54.4C230.8 49.6 230.4 44.4 227.6 40.4z" />
    <glyph glyph-name="alarm-3"
      unicode="&#xEA2A;"
      horiz-adv-x="256" d="M233.2 34.8L224.8 48C222.8 50.8 222 54 222 57.2V144C222 168 211.6 190.4 193.2 207.2C177.2 221.6 156.4 230 134.8 231.6V244C134.8 248 131.6 251.2 127.6 251.2S120.8 248 120.8 244V231.2C119.2 231.2 117.6 230.8 116.4 230.8C68.8 225.6 33.2 187.6 33.2 142.4V56.8C32.8 53.2 32 50.4 30.8 48.4L22.8 34.8C20.8 31.2 20.4 27.2 22.8 24C24.8 20.4 28 18.8 32 18.8H120.8V12C120.8 8 124 4.8 128 4.8S135.2 8 135.2 12V18.8H224C228 18.8 231.2 20.8 233.2 24C235.2 27.2 235.2 31.6 233.2 34.8zM117.6 217.2C142 220 166.4 212.4 183.6 196.8C199.6 182.8 208 164 208 144V76.4H47.2V142.4C47.2 180.4 77.6 212.4 117.6 217.2zM38 32.8L43.2 41.6C45.6 45.6 46.8 50 47.2 56V62.8H208V57.2000000000001C208 51.2 209.6 46.0000000000001 212.8 40.8L217.6 33.2H38z" />
    <glyph glyph-name="alarm-4"
      unicode="&#xEA2B;"
      horiz-adv-x="256" d="M188.8 81.6C188 82.8 187.6 84 187.6 85.6V138.4C187.6 153.6 181.2 168 169.2 178.4C160 186.8 148 192 135.2 193.6V204C135.2 208 132 211.2 128 211.2S121.2 208 121.2 204V193.6H120.8C90.8 190.4 68.4 166 68.4 137.6V86C68 83.6 67.6 82.8 67.2 82L62.4 74C60.4 70.8 60.4 67.2 62.4 64.4C64 61.6 67.2 60 70.4 60H121.2V52C121.2 48 124.4 44.8 128.4 44.8S135.6 48 135.6 52V60H186.8C190 60 193.2 61.6 194.8 64.4C196.8 67.2 196.4 71.2 194.8 74L188.8 81.6zM78.8 74L79.6 75.2C81.2 78 82 80.8 82.4 84.8V137.6C82.4 159.2 99.6 177.2 122.4 180C136.4 181.6 150 177.2 160 168.4C168.8 160.4 173.6 150 173.6 138.8V86C173.6 82 174.8 78.4 176.8 74.4L177.2 74H78.8zM19.2 119.6C19.2 129.6 23.2 139.2 30.8 146.4C33.6 149.2 33.6 153.6 30.8 156.4S23.6 159.2 20.8 156.4C10.8 146.4 5.2 133.6 5.2 119.6C5.2 105.6 10.8 92.8 20.8 82.8C22 81.6 24 80.8 25.6 80.8C27.6 80.8 29.2 81.6 30.8 82.8C33.6 85.6 33.6 90 30.8 92.8C23.2 100 19.2 109.6 19.2 119.6zM48.8 138.8C46 141.6 41.6 141.6 38.8 138.8C33.6 133.6 30.4 126.8 30.4 119.6C30.4 112.4 33.2 105.6 38.8 100.4C40 99.2 42 98.4 43.6 98.4C45.6 98.4 47.2 99.2 48.8 100.4C51.6 103.2 51.6 107.6 48.8 110.4C46.4 112.8 44.8 116 44.8 119.6S46.4 126.4 48.8 128.8C51.2 131.6 51.6 136 48.8 138.8zM217.2 138.8C214.4 141.6 210 141.6 207.2 138.8S204.4 131.6 207.2 128.8C209.6 126.4 211.2 123.2 211.2 119.6S209.6 112.8 207.2 110.4C204.4 107.6 204.4 103.2 207.2 100.4C208.4 98.8 210.4 98.4 212.4 98.4C214 98.4 216 99.2 217.2 100.4C222.4 105.6 225.6 112.4 225.6 119.6C225.2 126.8 222.4 134 217.2 138.8zM235.2 156.4C232.4 159.2 228 159.2 225.2 156.4S222.4 149.2 225.2 146.4C232.8 139.2 236.8 129.6 236.8 119.6S232.8 100 225.2 92.8C222.4 90 222.4 85.6 225.2 82.8C226.4 81.2 228.4 80.8 230.4 80.8C232 80.8 234 81.6 235.2 82.8C245.2 92.8 250.8 105.6 250.8 119.6C251.2 133.6 245.2 146.8 235.2 156.4z" />
    <glyph glyph-name="alarm-check"
      unicode="&#xEA2C;"
      horiz-adv-x="256" d="M181.2 250.4C155.6 250.4 133.2 236.4 120.8 215.6C113.2 219.2 105.2 221.2 96.8 222V243.2C96.8 247.2 93.6 250.4 89.6 250.4S82.4 247.2 82.4 243.2V222C64.8 220.4 48.8 212.8 36.4 200.4C22 186.4 14.4 167.2 14.4 147.2V106S13.2 87.6 6.8 72C3.6 64.4 4.4 55.6 9.2 48.4C14 41.6 21.6 37.2 30 37.2H54.4C56.4 19.6 71.6 6 89.6 6C107.6 6 122.8 19.6 124.8 37.2H149.2C157.6 37.2 165.6 41.2 170 48.4C174.8 55.2 175.6 64 172.4 72C166 87.6 164.8 106 164.8 106V112.8C170 111.6 175.2 110.8 180.8 110.8C219.2 110.8 250.8 142 250.8 180.8C251.2 218.8 219.6 250.4 181.2 250.4zM89.6 19.6C79.2 19.6 70.4 27.2 68.4 36.8H110.8C108.8 27.2 100 19.6 89.6 19.6zM150.8 105.2C150.8 104.4 152 84.4 159.2 66.4C160.8 62.8 160.4 59.2 158 56C156 52.8 152.4 51.2 148.8000000000001 51.2H30C26.4 51.2 22.8 53.2 20.8 56C18.8 59.2 18.4 62.8 19.6 66.4C26.8 84.4 28 104.4 28 105.6V147.2C28 163.6 34.4 178.8 46 190.4C57.6 202 72.8 208.4 89.2 208.4C98 208.4 106.4 206.4 114.4 202.8C112 195.6 110.8 188.4 110.8 180.4C110.8 152.8 127.2 128.8 150.4 117.6L150.8 105.2zM181.2 124.4C150.4 124.4 125.2 149.6 125.2 180.4S150.4 236.4 181.2 236.4S237.2 211.2 237.2 180.4S212 124.4 181.2 124.4zM203.6 194.4L170 172.8L164.4 183.6C162.8 187.2 158.4 188.4 154.8 186.8C151.2 185.2 150 180.8 151.6 177.2L160.8 159.6C161.6 158 163.2 156.4 165.2 156C165.6 156 166.4 155.6 167.2 155.6C168.4 155.6 170 156 170.8 156.8L210.8 182.4C214 184.4 214.8 188.8 212.8 192C211.2 195.6 206.8 196.8 203.6 194.4z" />
    <glyph glyph-name="alarm-clock-alt-2"
      unicode="&#xEA2D;"
      horiz-adv-x="256" d="M125.2 216C73.6 216 32 174 32 122.4C32 97.6 41.6 75.2 57.2 58.8C57.2 58.4 56.8 58.4 56.8 58L37.2 28.4C35.2 25.2 36 20.8 39.2 18.8C40.4 18 41.6 17.6 43.2 17.6C45.6 17.6 47.6 18.8 49.2 20.8L68 49.2C84 36.8 104 29.2 125.6 29.2S167.6 36.8 183.2 49.2L202 20.8C203.2 18.8 205.6 17.6 208 17.6C209.2 17.6 210.8 18 212 18.8C215.2 20.8 216 25.2 214 28.4L194.4 58C194.4 58.4 194 58.4 194 58.8C209.6 75.6 219.2 98 219.2 122.4C218.8 174 176.8 216 125.2 216zM46 122.4C46 166 81.6 201.6 125.2 201.6S204.4 166 204.4 122.4S168.8 43.2 125.2 43.2S46 78.8 46 122.4zM249.2 186.4L206 236C203.6 238.8 199.2 239.2 196 236.8C193.2 234.4 192.8 230 195.2 226.8L238.4 177.6C239.6 176 241.6 175.2 243.6 175.2C245.2 175.2 246.8 175.6 248.4 176.8C251.6 179.2 252 183.6 249.2 186.4zM59.6 236.4C56.8 238.8 52.4 238.8 49.6 235.6L6.8 186.4C4.4 183.6 4.4 179.2 7.6 176.4C8.8 175.2 10.4 174.8 12.4 174.8S16.4 175.6 17.6 177.2L60.4 226.4C62.8 229.6 62.8 234 59.6 236.4zM161.6 116.8H132V151.6C132 155.6 128.8 158.8 124.8 158.8S117.6 155.6 117.6 151.6V109.6C117.6 105.6 120.8 102.4 124.8 102.4H161.2C165.2 102.4 168.4 105.6 168.4 109.6S165.6 116.8 161.6 116.8z" />
    <glyph glyph-name="alarm-clock-alt"
      unicode="&#xEA2E;"
      horiz-adv-x="256" d="M192.8 238.4L212.8 222.8C214 222 215.6 221.2 217.2 221.2C219.2 221.2 221.2 222 222.8 224C225.2 227.2 224.8 231.6 221.6 234L201.6 249.6C198.4 252 194 251.6 191.6 248.4S189.6 240.8 192.8 238.4zM39.2 221.6C40.8 221.6 42.4 222 43.6 223.2L63.6 238.8C66.8 241.2 67.2 245.6 64.8 248.8C62.4 252 58 252.4 54.8 250L34.8 234.4C32 231.6 31.2 227.2 33.6 224.4C35.2 222.4 37.2 221.6 39.2 221.6zM192 46.8C216 65.6 231.6 95.2 231.6 128C231.2 185.2 184.8 231.2 128 231.2S24.8 185.2 24.8 128C24.8 95.2 40.4 65.6 64.4 46.8L36.8 16.8C34 14 34.4 9.6 37.2 6.8C38.4 5.6 40.4 4.8 42 4.8C44 4.8 45.6 5.6 47.2 7.2L76 38.8C91.2 30 109.2 24.8 128 24.8C147.2 24.8 164.8 30 180 38.8L208.8 7.2C210 5.6 212 4.8 214 4.8C215.6 4.8 217.2 5.6 218.8 6.8C221.6 9.6 222 14 219.2 16.8L192 46.8zM38.8 128C38.8 177.2 78.8 217.2 128 217.2S217.2 177.2 217.2 128S177.2 38.8 128 38.8S38.8 78.8 38.8 128zM177.6 135.2H135.2V176.4C135.2 180.4 132 183.6 128 183.6S120.8 180.4 120.8 176.4V128C120.8 124 124 121.2 128 121.2H177.6C181.6 121.2 184.8 124.4 184.8 128S181.6 135.2 177.6 135.2z" />
    <glyph glyph-name="alarm-clock"
      unicode="&#xEA2F;"
      horiz-adv-x="256" d="M175.2 114H135.2V154.8C135.2 158.8 132 162 128 162S120.8 158.8 120.8 154.8V114H117.2C113.2 114 110 110.8 110 106.8S113.2 99.6 117.2 99.6H120.8V96C120.8 92 124 88.8 128 88.8S135.2 92 135.2 96V100H175.2C179.2 100 182.4 103.2 182.4 107.2S178.8 114 175.2 114zM239.6 181.6C239.6 202.8 222.4 220.4 200.8 220.4C190 220.4 180 216 173.2 208.4C161.6 214 148.4 217.2 134.8 218.4V236.8H148.8C152.8 236.8 156 240 156 244S152.8 251.2 148.8 251.2H106.8C103.2 250.8 100 248 100 244S103.2 236.8 107.2 236.8H121.2V218C107.6 217.2 94.8 213.6 82.8 208C75.6 215.6 65.6 220 55.2 220C34 220 16.4 202.8 16.4 181.2C16.4 170 21.2 159.6 29.6 152.4C24.4 139.6 21.6 126 21.6 111.6C21.6 52.8 69.6 4.8 128.4 4.8S235.2 52.8 235.2 111.6C235.2 126 232.4 140 227.2 152.4C234.8 160 239.6 170.4 239.6 181.6zM201.2 206C214.8 206 226 194.8 226 181.2C226 175.2 224 170 220.4 165.6C212 180 200.4 192 186.8 200.8C190.4 204.4 195.6 206 201.2 206zM30.4 181.6C30.4 195.2 41.6 206.4 55.2 206.4C60.8 206.4 66 204.4 70 201.2C56 192 44.4 180 36 165.6C32.4 170 30.4 175.6 30.4 181.6zM128 18.8C76.8 18.8 35.2 60.4 35.2 111.6C35.2 162.8 76.8 204.4 128 204.4C179.2 204.4 220.8 162.8 220.8 111.6C220.8 60.8 179.2 18.8 128 18.8z" />
    <glyph glyph-name="alarm-timer"
      unicode="&#xEA30;"
      horiz-adv-x="256" d="M181.6 250.8C155.6 250.8 133.2 236.8 120.8 216C113.2 219.6 104.8 221.6 96.4 222.4V244C96.4 248 93.2 251.2 89.2 251.2S82.4 248 82.4 244V222.4C64.8 220.8 48.4 213.2 36 200.4C21.6 186 13.6 167.2 13.6 146.8V105.6S12.4 86.8 6 71.2C2.8 63.2 3.6 54.4 8.4 47.6C13.2 40.4 20.8 36.4 29.6 36.4H54C56 18.8 71.2 4.8 89.6 4.8C108 4.8 123.2 18.8 125.2 36.4H149.6C158 36.4 166 40.4 170.8 47.6C175.6 54.8 176.4 63.6 173.2 71.2C166.8 86.8 165.6 105.2 165.6 105.2V112C170.8 110.8 176.4 110 182 110C220.8 110 252.4000000000001 141.6 252.4000000000001 180.4S220 250.8 181.6 250.8zM89.6 18.8C79.2 18.8 70.4 26.4 68.4 36.4H111.2C108.8 26.4 100 18.8 89.6 18.8zM151.2 105.2C151.2 104.4 152.4 84.4 159.6 66.4C161.2 62.8 160.8 59.2000000000001 158.4 56C156.4 52.8 152.8 50.8 149.2 50.8H29.6C25.6 50.8 22.4 52.8 20.4 56C18.4 59.2 18 63.2 19.2 66.4C26.4 84.4 27.6 104.4 27.6 105.6V147.2C27.6 163.6 34 179.2 45.6 190.8C57.2 202.4 72.8 208.8 89.2 208.8C98 208.8 106.8 206.8 114.8 203.2C112.4 196 111.2 188.4 111.2 180.8C111.2 152.8 127.6 128.8 151.2 117.6V105.2zM181.6 124.4C150.4 124.4 125.2 149.6 125.2 180.8S150.4 236.8 181.6 236.8S238 211.6 238 180.4S212.4 124.4 181.6 124.4zM185.2 177.2V196.4C185.2 200.4 182 203.6 178 203.6S170.8 200.4 170.8 196.4V174C170.8 172 171.6 170.4 172.8 169.2L186 156C187.2 154.8 189.2 154 190.8 154S194.4 154.8 195.6 156C198.4 158.8 198.4 163.2 195.6 166L185.2 177.2z" />
    <glyph glyph-name="alarm"
      unicode="&#xEA31;"
      horiz-adv-x="256" d="M232.4 39.2L224 52.4C222 55.2 221.2 58 221.2 61.2V147.2C221.2 170.8 211.2 193.2 192.8 209.6C177.2 223.6 156.8 232 135.2 233.6V244C135.2 248 132 251.2 128 251.2S120.8 248 120.8 244V234C119.2 234 117.6 233.6 116 233.6C69.6 228.4 34 190.4 34 146V61.2C33.6 57.6 32.8 54.8 31.6 52.8L23.6 39.2C21.6 35.6 21.6 31.6 23.6 28.4C25.6 25.2 28.8 23.2 32.8 23.2H120.8V12C120.8 8 124 4.8 128 4.8S135.2 8 135.2 12V23.2H223.2C227.2 23.2 230.4 25.2 232.4 28.4C234.4 32 234.4 36 232.4 39.2zM38.8 37.2L44 45.6C46 49.6 47.6 54 48 59.6V145.6C48 183.2 78 214.8 117.6 219.2C142 222 165.6 214.4 183.2 198.8C198.8 184.8 207.2 166.4 207.2 146.8V60.4C207.2 54.8 208.8 49.2 212 44L216.8 36.4H38.8z" />
    <glyph glyph-name="alart-database"
      unicode="&#xEA32;"
      horiz-adv-x="256" d="M181.2 152.4V174V210.4V210.8C181.2 234.4 136.8 246.8 93.2 246.8S5.2 234.4 5.2 210.8V109.2C5.2 85.6 50.4 73.2 93.2 73.2C98 73.2 103.2 73.6 108 73.6C111.6 37.2 142.4 8.8 179.6 8.8C219.2 8.8 251.6 41.2 251.6 80.8C251.2 120 219.6 151.6 181.2 152.4zM19.2 190.8C35.6 180.4 64.4 175.2 93.2 175.2C122 175.2 150.8 180.4 167.2 190.8V174.8C166.8 166 137.6 152.8 93.2 152.8S19.2 166 19.2 174.8V190.8zM167.2 154.4V151.6C162.4 150.8 158 149.6 153.6 148C158.4 149.6 163.2 152 167.2 154.4zM93.2 232.8C137.6 232.8 167.2 219.6 167.2 210.8C166.8 202 137.6 188.8 93.2 188.8S19.2 202 19.2 210.8S48.4 232.8 93.2 232.8zM19.2 154.4C35.6 144 64.4 138.8 93.2 138.8C115.2 138.8 136.8 142 153.6 148C140 142.8 128.8 133.6 120.4 122C111.6 120.8 102.4 120.4 93.2 120.4C48.8 120.4 19.2 133.6 19.2 142.4V154.4zM19.2 109.6V122C35.6 111.6 64.4 106.4 93.2 106.4C99.6 106.4 106.4 106.8 112.4 107.2000000000001C110 101.2000000000001 108.4 94.8 107.6 88.4C102.8 88 98 88 92.8 88C47.2 87.2 19.2 101.6 19.2 109.6zM179.2 23.2C147.2 23.2 121.2 49.2 121.2 81.2S147.2 139.2 179.2 139.2S237.2 113.2 237.2 81.2C237.2 48.8 211.2 23.2 179.2 23.2zM179.2 116C175.2 116 172 112.8 172 108.8V74C172 70 175.2 66.8 179.2 66.8S186.4 70 186.4 74V108.8C186 113.2 183.2 116 179.2 116zM179.2 55.2C175.2 55.2 172 52 172 48V46.4C172 42.4 175.2 39.2 179.2 39.2S186.4 42.4 186.4 46.4V48C186 52 183.2 55.2 179.2 55.2z" />
    <glyph glyph-name="alert-server"
      unicode="&#xEA33;"
      horiz-adv-x="256" d="M52.4 194.4C56.4 194.4 59.6 197.6 59.6 201.6V202C59.6 206 56.4 209.2 52.4 209.2S45.2 206 45.2 202V201.6C45.6 197.2 48.8 194.4 52.4 194.4zM144.4 194.4H166C170 194.4 173.2 197.6 173.2 201.6S170 208.8 166 208.8H144.4C140.4 208.8 137.2 205.6 137.2 201.6S140.4 194.4 144.4 194.4zM52.4 140.4C48.4 140.4 45.2 137.2 45.2 133.2V132.8C45.2 128.8 48.4 125.6 52.4 125.6S59.6 128.8 59.6 132.8V133.2C59.6 137.6 56.4 140.4 52.4 140.4zM206 148.4C206 154.8 203.6 160.4 199.6 164.8C203.6 168.4 206 173.2 206 178.8V223.2C206 233.6 197.6 242.4 186.8 242.4H24C13.6 242.4 4.8 234 4.8 223.2V178.8C4.8 173.2 7.2 168 11.2 164.8C7.2 160.4 4.8 154.4 4.8 147.6V117.6C4.8 103.2 16.4 91.6 30.8 91.6H112C111.6 88.8 111.6 86 111.6 83.2C111.6 44.8 142.8 13.6 181.2 13.6S250.8 44.8 250.8 83.2C251.2 113.2 232.4 138.4 206 148.4zM19.2 223.2C19.2 226 21.2 228 24 228H186.8C189.6 228 192 226 192 223.2V178.8C192 176 189.6 173.6 186.8 173.6H24C21.2 173.6 18.8 176 18.8 178.8V223.2zM31.2 105.6C24.4 105.6 19.2 111.2 19.2 117.6V147.6C19.2 154.4 24.8 159.6 31.2 159.6H180C185.2 159.6 189.6 156.4 191.2 152C188 152.4 184.8 152.8 181.6 152.8C151.2 152.8 125.2 132.8 115.6 105.6H31.2zM181.2 28C150.4 28 125.6 52.8 125.6 83.6S150.4 139.2 181.2 139.2S236.8 114.4 236.8 83.6S212 28 181.2 28zM182.4 118C178.4 118 175.2 114.8 175.2 110.8V88.8C175.2 84.8 178.4 81.6 182.4 81.6S189.6 84.8 189.6 88.8V110.8C189.2 114.8 186 118 182.4 118zM182.4 64.8C178.4 64.8 175.2 61.6 175.2 57.6V56C175.2 52 178.4 48.8 182.4 48.8S189.6 52 189.6 56V57.6C189.2 61.6 186 64.8 182.4 64.8z" />
    <glyph glyph-name="align-left-1"
      unicode="&#xEA34;"
      horiz-adv-x="256" d="M22.8 56.4V199.6C22.8 203.6 19.6 206.8 15.6 206.8S8.4 203.6 8.4 199.6V56.4C8.4 52.4 11.6 49.2 15.6 49.2S22.8 52.4 22.8 56.4zM83.6 52.4C97.2 52.4 108 63.2 108 76.8V179.2C108 192.8 97.2 203.6 83.6 203.6H76C62.4 203.6 51.6 192.8 51.6 179.2V76.8C51.6 63.2 62.4 52.4 76 52.4H83.6zM65.6 76.8V179.2C65.6 184.8 70.4 189.6 76 189.6H83.6C89.2 189.6 94 184.8 94 179.2V76.8C94 71.2 89.2 66.4 83.6 66.4H76C70 66.4 65.6 71.2 65.6 76.8zM222.8 250.8H19.6C16 250.8 12.8 248 12.8 244S16 236.8 19.6 236.8H222.8C228.4 236.8 233.2 232 233.2 226.4V29.2C233.2 23.6 228.4 18.8 222.8 18.8H19.6C15.6 18.8 12.4 15.6 12.4 11.6S15.6 4.4 19.6 4.4H222.8C236.4 4.4 247.2 15.2 247.2 28.8V226.4C247.2 240 236 250.8 222.8 250.8z" />
    <glyph glyph-name="align-left-2"
      unicode="&#xEA35;"
      horiz-adv-x="256" d="M22.8 56.4V199.6C22.8 203.6 19.6 206.8 15.6 206.8S8.4 203.6 8.4 199.6V56.4C8.4 52.4 11.6 49.2 15.6 49.2S22.8 52.4 22.8 56.4zM72 141.2H174.4C188 141.2 198.8 152 198.8 165.6V173.2C198.8 186.8 188 197.6 174.4 197.6H72C58.4 197.6 47.6 186.8 47.6 173.2V165.6C47.6 152.4 58.4 141.2 72 141.2zM61.6 173.6C61.6 179.2 66.4 184 72 184H174.4C180 184 184.8 179.2 184.8 173.6V166C184.8 160.4 180 155.6 174.4 155.6H72C66.4 155.6 61.6 160.4 61.6 166V173.6zM47.6 82.4C47.6 68.8 58.4 58 72 58H143.6C157.2 58 168 68.8 168 82.4V90C168 103.6 157.2 114.4 143.6 114.4H72C58.4 114.4 47.6 103.6 47.6 90V82.4zM61.6 90.4C61.6 96 66.4 100.8 72 100.8H143.6C149.2 100.8 154 96 154 90.4V82.8C154 77.2 149.2 72.4 143.6 72.4H72C66.4 72.4 61.6 77.2 61.6 82.8V90.4zM222.8 250.8H19.6C16 250.8 12.8 248 12.8 244S16 236.8 19.6 236.8H222.8C228.4 236.8 233.2 232 233.2 226.4V29.2C233.2 23.6 228.4 18.8 222.8 18.8H19.6C15.6 18.8 12.4 15.6 12.4 11.6S15.6 4.4 19.6 4.4H222.8C236.4 4.4 247.2 15.2 247.2 28.8V226.4C247.2 240 236 250.8 222.8 250.8z" />
    <glyph glyph-name="align-left-3"
      unicode="&#xEA36;"
      horiz-adv-x="256" d="M163.6 128C163.6 124 166.8 120.8 170.8 120.8H244C248 120.8 251.2 124 251.2 128S248 135.2 244 135.2H170.8C166.8 134.8 163.6 132 163.6 128zM242.8 60C238.8 60 235.6 56.8 235.6 52.8V29.6C235.6 24 230.8 19.2 225.2 19.2H202C198 19.2 194.8000000000001 16 194.8000000000001 12S198 4.8 202 4.8H225.2C238.8 4.8 249.6 15.6000000000001 249.6 29.2V52.4C250.0000000000001 56.8 246.8 60 242.8 60zM202.4 236.4H225.6C231.2 236.4 236 231.6 236 226V202.8C236 198.8 239.2 195.6 243.2 195.6S250.4 198.8 250.4 202.8V226C250.4 239.6 239.6 250.4 226 250.4H202.8C198.8 250.4 195.6 247.2 195.6 243.2S198.4 236.4 202.4 236.4zM52.4 19.6H29.2C23.6 19.6 18.8 24.4 18.8 30V120.8H84C88 120.8 91.2 124 91.2 128S88 135.2 84 135.2H19.2V226C19.2 231.6 24 236.4 29.6 236.4H52.8C56.8 236.4 60 239.6 60 243.6S56.8 250.8 52.8 250.8H29.2C16 250.4 5.2 239.6 5.2 226V29.6C5.2 16 16 5.2 29.6 5.2H52.8C56.8 5.2 60 8.4 60 12.4S56.4 19.6 52.4 19.6zM250 167.6V173.2C250 177.2 246.8 180.4 242.8 180.4S236 177.2 236 173.6V168C236 164 239.2 160.8 243.2 160.8S250 164 250 167.6zM242.8 94C238.8 94 235.6 90.8 235.6 86.8V81.2C235.6 77.2 238.8 74 242.8 74S250 77.2 250 81.2V86.8C250 90.8 246.8 94 242.8 94zM173.6 18.8H168C164 18.8 160.8 15.6 160.8 11.6S164 4.4 168 4.4H173.6C177.6 4.4 180.8 7.6 180.8 11.6S177.6 18.8 173.6 18.8zM87.2 18.8H81.6C77.6 18.8 74.4 15.6 74.4 11.6S77.6 4.4 81.6 4.4H87.2C91.2 4.4 94.4 7.6 94.4 11.6S90.8 18.8 87.2 18.8zM168 235.6H173.6C177.6 235.6 180.8 238.8 180.8 242.8S177.6 250 173.6 250H168C164 250 160.8 246.8 160.8 242.8S164 235.6 168 235.6zM87.2 249.6H81.6C77.6 249.6 74.4 246.4 74.4 242.4S77.6 235.2 81.6 235.2H87.2C91.2 235.2 94.4 238.4 94.4 242.4S90.8 249.6 87.2 249.6zM127.6 91.6C123.6 91.6 120.4 88.4 120.4 84.4V11.2C120.4 7.2 123.6 4 127.6 4S134.4 7.2 134.4 11.2V84.8C134.4 88.4 131.2 91.6 127.6 91.6zM127.6 251.6C123.6 251.6 120.4 248.4 120.4 244.4V171.2C120.4 167.2 123.6 164 127.6 164S134.4 167.2 134.4 171.2V244.4C134.4 248.4 131.2 251.6 127.6 251.6z" />
    <glyph glyph-name="align-left"
      unicode="&#xEA37;"
      horiz-adv-x="256" d="M22.4 250.8C18.8 250.8 15.6 248 15.6 244V12C15.6 8 18.8 4.8 22.8 4.8S29.6 8 29.6 12V244C29.6 248 26.4 250.8 22.4 250.8zM214.4 213.2H83.6C69.2 213.2 57.6 201.6 57.6 187.2V178.8C57.6 164.4 69.2 152.8 83.6 152.8H214.4C228.8 152.8 240.4 164.4 240.4 178.8V187.2C240.4 201.2 228.8 213.2 214.4 213.2zM226.4 178.8C226.4 172 221.2 166.8 214.4 166.8H83.6C76.8 166.8 71.6 172 71.6 178.8V187.2C71.6 194 76.8 199.2 83.6 199.2H214.4C221.2 199.2 226.4 194 226.4 187.2V178.8zM161.6 103.2H83.6C69.2 103.2 57.6 91.6 57.6 77.2V68.8C57.6 54.4 69.2 42.8 83.6 42.8H161.6C176 42.8 187.6 54.4 187.6 68.8V77.2C187.6 91.6 176 103.2 161.6 103.2zM173.6 68.8C173.6 62 168.4 56.8 161.6 56.8H83.6C76.8 56.8 71.6 62 71.6 68.8V77.2C71.6 84 76.8 89.2 83.6 89.2H161.6C168.4 89.2 173.6 84 173.6 77.2V68.8z" />
    <glyph glyph-name="align-right-1"
      unicode="&#xEA38;"
      horiz-adv-x="256" d="M240 206.4C236 206.4 232.8 203.2 232.8 199.2V56C232.8 52 236 48.8 240 48.8S247.2 52 247.2 56V199.6C247.2 203.2 244 206.4 240 206.4zM208.4 173.6C208.4 187.2 197.6 198 184 198H81.6C68 198 57.2 187.2 57.2 173.6V166C57.2 152.4 68 141.6 81.6 141.6H184C197.6 141.6 208.4 152.4 208.4 166V173.6zM194.4 165.6C194.4 160 189.6 155.2 184 155.2H81.6C76 155.2 71.2 160 71.2 165.6V173.2C71.2 178.8 76 183.6 81.6 183.6H184C189.6 183.6 194.4 178.8 194.4 173.2V165.6zM184 114.8H112.4C98.8 114.8 88 104 88 90.4V82.8C88 69.2 98.8 58.4 112.4 58.4H184C197.6 58.4 208.4 69.2 208.4 82.8V90.4C208.4 103.6 197.6 114.8 184 114.8zM194.4 82.4C194.4 76.8 189.6 72 184 72H112.4C106.8 72 102 76.8 102 82.4V90C102 95.6 106.8 100.4 112.4 100.4H184C189.6 100.4 194.4 95.6 194.4 90V82.4zM236.4 18.8H33.2C27.6 18.8 22.8 23.6 22.8 29.2V226.4C22.8 232 27.6 236.8 33.2 236.8H236C240 236.8 243.2 240 243.2 244S240 250.8 236.4 250.8H33.2C20 250.8 8.8 240 8.8 226.4V29.2C8.8 15.6 19.6 4.8 33.2 4.8H236C240 4.8 243.2 8 243.2 12S240 18.8 236.4 18.8z" />
    <glyph glyph-name="align-right-2"
      unicode="&#xEA39;"
      horiz-adv-x="256" d="M240 206.4C236 206.4 232.8 203.2 232.8 199.2V56C232.8 52 236 48.8 240 48.8S247.2 52 247.2 56V199.6C247.2 203.2 244 206.4 240 206.4zM172.4 203.6C158.8 203.6 148 192.8 148 179.2V76.8C148 63.2 158.8 52.4 172.4 52.4H180C193.6 52.4 204.4 63.2 204.4 76.8V179.2C204.4 192.8 193.6 203.6 180 203.6H172.4zM190.8 179.2V76.8C190.8 71.2 186 66.4 180.4 66.4H172.8C167.2 66.4 162.4 71.2 162.4 76.8V179.2C162.4 184.8 167.2 189.6 172.8 189.6H180C186 189.6 190.8 184.8 190.8 179.2zM236.4 18.8H33.2C27.6 18.8 22.8 23.6 22.8 29.2V226.4C22.8 232 27.6 236.8 33.2 236.8H236C240 236.8 243.2 240 243.2 244S240 250.8 236.4 250.8H33.2C20 250.8 8.8 240 8.8 226.4V29.2C8.8 15.6 19.6 4.8 33.2 4.8H236C240 4.8 243.2 8 243.2 12S240 18.8 236.4 18.8z" />
    <glyph glyph-name="align-right"
      unicode="&#xEA3A;"
      horiz-adv-x="256" d="M233.6 250.8C229.6 250.8 226.4 247.6 226.4 243.6V11.6C226.4 7.6 229.6 4.4 233.6 4.4S240.8 7.6 240.8 11.6V244C240.4 248 237.2 250.8 233.6 250.8zM172.4 213.2H41.6C27.2 213.2 15.6 201.6 15.6 187.2V178.8C15.6 164.4 27.2 152.8 41.6 152.8H172.4C186.8 152.8 198.4 164.4 198.4 178.8V187.2C198.4 201.2 186.8 213.2 172.4 213.2zM184.4 178.8C184.4 172 179.2 166.8 172.4 166.8H41.6C34.8 166.8 29.6 172 29.6 178.8V187.2C29.6 194 34.8 199.2 41.6 199.2H172.4C179.2 199.2 184.4 194 184.4 187.2V178.8zM172.4 103.2H94.4C80 103.2 68.4 91.6 68.4 77.2V68.8C68.4 54.4 80 42.8 94.4 42.8H172.4C186.8 42.8 198.4 54.4 198.4 68.8V77.2C198.4 91.6 186.8 103.2 172.4 103.2zM184.4 68.8C184.4 62 179.2 56.8 172.4 56.8H94.4C87.6 56.8 82.4 62 82.4 68.8V77.2C82.4 84 87.6 89.2 94.4 89.2H172.4C179.2 89.2 184.4 84 184.4 77.2V68.8z" />
    <glyph glyph-name="amazon-original"
      unicode="&#xEA3B;"
      horiz-adv-x="256" d="M224 71.2C193.6 58.4 160.4 52 130.4 52C86.4 51.6 43.2 64 8 84.8C5.2 86.4 2.4 83.6 5.2 80.8C37.2 51.6 80 34 127.6 34C161.6 34 200.8 44.8 228 64.4C232.8 68 228.8 73.2 224 71.2zM250.8 86.4C248 90.4 222.8 93.2 206.8 82.4C204.4 80.8 205.2 78.4 207.2 78.4C215.6 79.6 235.2 81.6 238.8 77.2S234.8 54.8 232 46.4C230.8 44 233.2 43.2 235.2 44.8C250.4 57.2 254.4 82.8 250.8 86.4zM140.4 173.2C127.6 172 110 170.8 98 165.2C84 159.2 73.6 146.8 73.6 128.4C73.6 104.8 88.4 92.8 107.6 92.8C123.2 92.8 132.4 96.8 144.8 109.2C148.8 103.6 150.4 100 157.6 94C159.2 93.6 161.6 93.6 163.2 94.4C167.6 98.4 176 105.6 180.8 109.2000000000001C182.4 110.8 182.4 113.2000000000001 180.8 114.8000000000001C176.8 120.4 172.4 124.8000000000001 172.4 135.6V171.2000000000001C172.4 186.0000000000001 173.6 200.0000000000001 162.4 210.0000000000001C154 218.4 139.2 221.2000000000001 128.4 221.2000000000001C106.8 221.2000000000001 83.2 213.2000000000001 78.4 186.8000000000001C78 184.0000000000001 80 182.4 81.2 182.4L102.8 180C105.2 180 106 182.4 106.8 184C108.4 193.2000000000001 116 197.6 124.8 197.6C129.2 197.6 134.8 196 137.6 192C140.4 187.6 140.4 180.8 140.4 175.6V173.2zM136 126.4C132.8 120.4 126.8 116.4 120.8 116.4C112.4 116.4 106.8 123.2 106.8 132.8C106.8 152 124.4 155.2 140 155.2V150C140.4 142 140.4 134.4 136 126.4z" />
    <glyph glyph-name="amazon-pay"
      unicode="&#xEA3C;"
      horiz-adv-x="256" d="M4 98C4 98.4 4.4 99.2 5.2 99.2C6 99.6 7.2 99.2 8 98.8C12.4 96.4 16.4 94.4 20.8 92C37.2 84 54.8 78 72.4 73.2C80.8 71.6 89.2 70 98 68.8C110.8 67.2 123.6 66.4 136.4 67.2C143.2 67.2 150.4 67.6 158 68.8C180.4 71.6 203.2 77.2 224 86.4C225.2 86.8 226.4 86.8 228 86.8C230.8 86.4 231.2 83.6 229.6 81.2C228.4 80 227.2 79.6 225.6 78.4C213.2 69.9999999999999 199.6 63.5999999999999 185.6 59.2C175.6 56.4 165.2 53.6 155.2 52.4C136.4 50.4 116.8 49.9999999999999 98 52.8C86.8 54.4 76 57.2 65.2 61.2C58.8 63.6 52.4 66.4 46.4 69.2C40.4 72.4 34.4 75.6 28.4 79.2C22.4 84 17.2 88 11.6 92C10.8 92.8 9.6 93.6 8.8 94.4C8 95.2 7.2 96.4 5.6 96.4C5.2 96.4 4.8 96.8 4.4 96.8C4.4 97.6 4 97.6 4 98zM68 204.4L66.4 204C60.8 203.6 55.6 201.2 51.2 197.6C50 197.2 49.6 196 48.4 195.2V195.6C48.4 196.8 48 198 48 198.8C47.6 200.4 46.8 201.6 45.2 201.6H40C37.2 201.6 36.8 201.2 36.8 198.4V112.4C36.8 111.2 37.2 110.8 38.4 110.8H46.8C48 110.8 48.4 111.2 48.4 112.4V142.8L48.8 142.4C56 136 64 134.4 73.6 136C81.6 137.6 87.6 142.8 91.6 150C94.4 155.6 95.6 162 96 168C96.4 174.8 95.6 181.6 93.2 188.4C90 196.4 84 201.2 75.2 203.6C74 204 72.4 204 71.2 204C70.8 204.4 69.6 204.4 68 204.4zM49.2 186.8C49.2 187.2 49.6 188 49.6 188C55.2 192 61.6 193.6 68.4 193.6C74.8 193.2 79.2 190.4 82 182.8C83.6 178.4 83.6 173.6 83.6 169.2S83.2 160.8 82 156.8C79.2 148.4 72.8 144.8 64.4 144.8C58.8 145.2 53.6 147.2 49.2 150.4V152V168.8V186.8zM132.4 204.4H131.2C127.2 204.4 123.2 204 119.2 202.8C116.8 202.4 114 201.2 112 200.4C110.4 200 109.6 198.8 109.6 197.6V193.6C109.6 192 110 191.2 112.4 192C115.2 192.4 118.8 193.6 122 194.4C127.2 194.8 132 195.6 137.2 194.8C140 194.4 142.4 193.6 144 191.6C145.6 190 145.6 187.2 146.4 184.8V174.4H146C141.6 175.6 137.6 176 133.2 176C128.8 176.4 124 176 119.6 174.4C114 172.8 110.4 169.2 107.6 164.4C106 160.4 105.2 156.4 106 152C106.4 146.4 109.2 142 114.4 139.2C118.8 136.4 124.4 136.4 129.6 136.8C136 137.2 141.6 140 146 144C146.4 144 146.4 144.4 146.4 144.4C146.8 142.8 146.8 141.6 146.8 140C147.2 138.8 148 138.4 149.2 138.4H156C157.2 138.4 157.6 138.8 157.6 140V183.2C157.6 184.8 157.6 186.4 157.2 188.8C156.8 194.4 154.4 198.4 149.2 201.2C146.4 202.8 143.6 203.6 140 204C138.4 204.4 137.2 204.4 135.6 204.4H132.4zM146.8 152.4C146.8 152 146.4 152 146.4 151.2C142 148.4 136.8 145.6 131.2 144.8C128.8 144.4 126.8 144.8 124.4 145.2C122 145.6 120 148 119.2 150.8C118.8 153.6 118.8 156.4 119.2 158.8C120.4 162 122.4 164.4 126 165.2C128.8 166.4 132.8 166.4 136 165.6C139.2 165.2 142.8 165.2 146 164C146.4 164 146.4 163.6 146.4 162.8V157.2C146.4 155.6 146.8 154 146.8 152.4zM251.2 99.6C251.2 100.8 250.4 102 248.8 102.8C244.8 104.8 239.2 105.2 234.8 105.2C225.6 105.6 215.2 103.2 207.2 98C206.8 97.6 206 97.6 205.6 96.4C205.2 96 205.2 95.2000000000001 205.2 94.8S205.6 94.4 206.8 94.4H207.2C210 94.8 213.6 94.8 216.4 95.6C222 96.8 229.2 96.4 234.8 95.6C236 95.2 236.8 95.2 237.6 94.4C239.2 93.2000000000001 239.2 90.8 238.8 88.8C237.6 80 234.4 70.8 230 63.2000000000001C229.6 62.8 229.6 62.4 229.6 62.0000000000001C229.6 61.2000000000001 230.8 60.8000000000001 231.6 60.8000000000001C232.4 61.2000000000001 233.2 61.6000000000001 233.6 62.4000000000001C234.8 63.6000000000001 236 64.8000000000001 236.8 66.0000000000001C240.8 70.8000000000001 243.6 76.8000000000001 246 82.8000000000001C248.4 87.6000000000001 251.6 94.0000000000001 251.2 99.6000000000001zM198.8 149.6C193.2 163.6 188 178.4 182.8 193.2C182.4 195.6 181.2 197.6 180 200C179.6 201.2 178.8 201.6 177.2 201.6H168C166.8 201.6 166.4 201.2 166.8 200C167.2 199.6 167.2 198.4 167.2 197.6C175.2 178 183.2 158 191.6 138.8C192 137.2 192 136 191.6 134.4C190.4 131.6 189.2 128 187.6 125.2C186.4 122.4 184.8 120.8 181.2 119.6C179.6 118.4 177.2 118.4 175.6 118.4C174.4 118.4 174 118.8 172.8 118.8C171.2 118.8 171.2 118.4 171.2 117.2V113.2C171.2 110.8 171.6 110.4 174 110S178.4 109.6 180.8000000000001 109.6C187.6000000000001 109.6 193.2000000000001 112.4 196.8000000000001 118C198.4 120.4 199.6000000000001 123.2 200.8000000000001 125.2C210.4 149.6 220 173.6 229.6000000000001 198C230.0000000000001 198.4 230.0000000000001 199.6 230.0000000000001 200.4C230.0000000000001 201.6 229.6000000000001 202 228.4000000000001 202H220.4000000000001C218.8000000000001 202 217.6000000000001 201.6 217.6000000000001 200.4C217.2000000000001 200 217.2000000000001 199.2 217.2000000000001 198.8L203.2000000000001 157.6C202.0000000000001 154.8 201.6000000000001 152 200.4 148.4C198.8000000000001 148.8 198.8000000000001 149.6 198.8000000000001 149.6z" />
    <glyph glyph-name="amazon"
      unicode="&#xEA3D;"
      horiz-adv-x="256" d="M119.2 104C120 104 120.8 104 122.4 104.4H123.6C130.8 106 136.4 110.8 140 118C141.6 121.2 142.8 124.4 143.6 127.6C144.4 130.4 144.8 133.2 144.8 136V149.2C144.8 153.2 141.6 156.4 137.6 156.4C129.2 156.4 123.6 156 119.2 154.8C105.2 150.8 97.6 141.2 97.6 127.2C97.6 120.8 99.2 115.6 102.8 110.8C108 106.4 113.2 104 119.2 104zM123.6 141.2C125.2 141.6 127.6 142 131.2 142.4V136C131.2 134.8 130.8 133.2 130.4 130.8C130 128.8 129.2 126.8 128 124.8C126.4 121.2 124 119.2 120.8 118.4C120.4 118.4 119.6 118.4 118.8 118C116.8 118 115.6 118.8 114.4 120C112.8 122 112.4 124.4 112.4 127.2C112.4 134.8 115.6 139.2 123.6 141.2zM86 175.6C74.8 171.2 66 164 59.6 155.2C53.2 145.6 50 134.4 50 121.6C50 104.8 54.8 92 64.8 82.8C74.4 73.6 86.8 68.8 101.6 68.8C110.8 68.8 118.4 69.6 124.8 71.6C133.2 74 141.6 79.2 150 87.2C154.8 81.6 161.2 74 163.2 72.4C163.6 72 164 71.6 164.8 71.2C166.8 70 169.2 69.6 171.6 69.6C174.8 69.6 177.2 70.4 179.6 72C180 72.4 207.2 93.6 207.2 100.8C207.2 103.2000000000001 206.4 105.6000000000001 204.8 108.4C204.8 108.8 204.4 108.8 204.4 109.2000000000001C201.6 112.8000000000001 200 115.2000000000001 198.4 117.2000000000001C197.6 118.0000000000001 196.8 120.0000000000001 196 122.8000000000001C195.2 125.6000000000001 194.8 128.8000000000001 194.8 132.4V193.2C194.8 196 194.8 198.4 194.4 200C194 205.2 193.6 206.8 193.2 208C190.4 218 180.8 249.6 129.2 251.6C128 251.6 103.6 252.4 81.6 241.2C69.2 234.8 59.6 220 55.6 201.6C55.2 200 55.2 198.8 55.2 198C55.2 192 58.8 187.6 65.2 186.4H65.6L94.4 182.8H96.8C102.4 184 106 188.4 107.2 194C108 197.6 109.6 200.4 112.4 202.4C118.4 207.2 124.8 206.8 124.8 206.8H125.2C129.6 206.8 132.4 205.2 134.8 201.6C135.2 201.2 136.8 198 137.2 186C130 185.2 124.8 184.8 121.2 184.4C108 182.8 96 179.6 86 175.6zM140 172L144.8 172.4C148.4 172.8 151.2 175.6 151.2 179.2V184C151.2 196.4 149.6 204.8 146.4 209.6C141.2 217.2 134 220.8 125.2 220.8C123.2 220.8 112.8 220.8 103.2 213.2C98 209.2 94.4 203.6 92.8 196.8L68.8 199.6C72 213.2 78.8 224 87.2 228.4C105.6 238 127.6 237.2 127.6 237.2C168.8 236 176.4 212.4 177.6 205.6V204.8C177.6 204.4 178 203.2 178.4 198.8C178.8 195.6 178.8 193.6 178.8 192.8V132C178.8 126.8 179.6 122 180.8 118C182.4 113.2 184 110.4 186 108C187.2 106.4 188.4 104.8 190.4 102C185.2 96.8 173.2 86.4 170 83.6C166.4 87.6 156.4 99.6 155.2 100.8C154 102.4 152 103.6 150 104C148 104 145.6 103.2 144.4 101.6C136 92.4 128 86.8 120 84.4C114.8 82.8 108.4 82 100.8 82C90 82 80.8 85.2 74 92C67.2 98.4 63.6 108 63.6 120.8C63.6 130.8 66 139.6 70.8 146.4C75.6 153.2 82.4 158.4 91.2 162C100 165.6 110.8 168.4 122.8 170C126.8 171.2 132.4 171.6 140 172zM218.4 39.6C218 39.2 216.8 39.2 215.6 38.4C214 38 213.2 37.6 212.4 37.2C185.2 27.2 158.4 21.6 130.4 21.6C88.8 21.6 50.8 31.6 15.2 52C13.6 52.8 12.4 52.8 11.6 51.6C11.2 51.2 11.2 50.8 11.2 50.4C11.2 50 11.6 48.8 12.4 48.4C28 34.8 45.6 24 65.2 16C84.8 8.4 105.6 4.4 128 4.4C142.4 4.4 156.8 6.4 172 10.4C186.8 14.4 200.4 20 212.8 27.2C216.8 29.6 220 32 222.4 33.6C224.4 35.2 224.8 36.4 223.6 38.4C222.4 40 220.4 40.4 218.4 39.6zM243.6 54C242.4 55.6 238.8 56.8 232.4 57.2C231.2 57.6 229.6 57.6 228.4 57.6C223.6 57.6 218.4 56.8 212.8 55.2C209.6 54.4 206 52.8 202.8 50.4C202.4 50 202 49.2 201.6 48.8C201.6 48.4 201.2 48.4 201.2 48.4C201.2 48 201.2 48 201.6 47.6S202.4 47.2 203.2 47.2C206 47.6 209.2 48 212.8 48.4C216 48.8 218.8 48.8 221.2 48.8C227.6 48.8 231.6 47.9999999999999 233.2 45.9999999999999C233.6 45.5999999999999 234.0000000000001 44.4 234.0000000000001 42.4C234.0000000000001 37.5999999999999 231.2 29.2 226.0000000000001 16.8C225.6 15.6 225.6 14.8 226.4000000000001 14.4C226.8000000000001 14.4 226.8000000000001 13.9999999999999 227.2000000000001 13.9999999999999S228.4000000000001 14.4 229.2000000000001 14.8C234.0000000000001 18.8 237.6000000000001 24.4 240.4000000000001 31.2C243.2000000000001 38 244.4000000000001 43.6 244.4000000000001 48.8V50.4C244.4000000000001 51.9999999999999 244.0000000000001 53.2 243.6 53.9999999999999z" />
    <glyph glyph-name="ambulance-2"
      unicode="&#xEA3E;"
      horiz-adv-x="256" d="M245.2 152L202 202.8C197.6 208 190.8 211.2 184 211.2H28.4C15.6 211.2 4.8 200.8 4.8 187.6V89.2C4.8 76 15.2 65.6 28.4 65.6H36C39.2 54 49.6 45.6 62 45.6S85.2 54 88 65.6H173.2C176.4 54 186.8 45.6 199.2 45.6S222.4 54 225.2 65.6H226.8C239.6 65.6 250.4 76 250.4 89.2V137.2C251.2 142.4 248.8 147.6 245.2 152zM62 59.2C54.8 59.2 48.8 65.2 48.8 72.4S54.8 85.6 62 85.6S75.2 79.6 75.2 72.4S69.2 59.2 62 59.2zM199.6 59.2C192.4 59.2 186.4 65.2 186.4 72.4S192.4 85.6 199.6 85.6S212.8 79.6 212.8 72.4S206.8 59.2 199.6 59.2zM237.2 88.8C237.2 83.6 232.8 79.2 227.6 79.2H226C222.8 90.8 212.4 99.2 200 99.2S176.8 90.8 174 79.2H88.4C85.2 90.8 74.8 99.2 62.4 99.2S39.2 90.8 36.4 79.2H28.4C23.2 79.2 18.8 83.6 18.8 88.8V187.2C18.8 192.4 23.2 196.8 28.4 196.8H184C186.8 196.8 189.6 195.6 191.2 193.6L234.8 142.8C236.4 141.2 237.2 138.8 237.2 136.4V88.8zM109.2 155.6H93.2V171.6C93.2 175.6 90 178.8 86 178.8S78.8 175.6 78.8 171.6V155.6H62.8C58.8 155.6 55.6 152.4 55.6 148.4S58.8 141.2 62.8 141.2H78.8V125.2C78.8 121.2 82 118.4 86 118.4S93.2 121.6 93.2 125.2V141.2H109.2C113.2 141.2 116.4 144.4 116.4 148.4S113.2 155.6 109.2 155.6zM208 142H190C184.8 142 180.4 146.4 180.4 151.6V172.8C180.4 176.8 177.2 180 173.2 180S166 176.8 166 172.8V151.6C166 138.8 176.4 128 189.6 128H208C212 128 215.2 131.2 215.2 135.2S211.6 142 208 142z" />
    <glyph glyph-name="ambulance-alt-1"
      unicode="&#xEA3F;"
      horiz-adv-x="256" d="M231.2 205.6H135.2V216.8C135.2 220.8 132 224 128 224S120.8 220.8 120.8 216.8V205.6H94.8C70 205.6 46.8 194.4 31.2 174.8L9.2 146.8C6.4 143.2 4.8 139.2 4.8 134.8V93.2C4.8 82.4 13.6 73.6 24.4 73.6H36.8C35.6 70.4 34.8 66.8 34.8 63.2C34.8 46.4 48.4 32.8 65.2 32.8C82 32.8 95.6 46.4 95.6 63.2C95.6 66.8 94.8 70.4 93.6 73.6H162.8C161.6 70.4 160.8 66.8 160.8 63.2C160.8 46.4 174.4 32.8 191.2 32.8S221.6 46.4 221.6 63.2C221.6 66.8 220.8 70.4 219.6 73.6H230.8C241.6 73.6 250.4 82.4 250.4 93.2V186C251.2 196.8 242 205.6 231.2 205.6zM42.4 166C53.2 179.6 68 188 84.8 190.8V146H26.4L42.4 166zM65.6 46C56.4 46 49.2 53.2 49.2 62.4S56.4 78.8 65.6 78.8S82 71.6 82 62.4S74.8 46 65.6 46zM191.6 46C182.4 46 175.2 53.2 175.2 62.4S182.4 78.8 191.6 78.8S208 71.6 208 62.4S200.8 46 191.6 46zM237.2 92.8C237.2 89.6 234.8 87.2 231.6 87.2H210C205.2 90.8 198.8 92.8 192.4 92.8S179.6 90.8 174.8 87.2H83.2C78.4 90.8 72 92.8 65.6 92.8C58.8 92.8 52.8 90.8 48 87.2H24.8C21.6 87.2 19.2 89.6 19.2 92.8V132H92C96 132 99.2 135.2 99.2 139.2V191.6H232C235.2 191.6 237.6 189.2 237.6 186V92.8zM194 146.4H178V162.4C178 166.4 174.8 169.6 170.8 169.6S163.6 166.4 163.6 162.4V146.4H147.6C143.6 146.4 140.4 143.2 140.4 139.2S143.6 132 147.6 132H163.6V116C163.6 112 166.8 108.8 170.8 108.8S178 112 178 116V132H194C198 132 201.2 135.2 201.2 139.2S198 146.4 194 146.4z" />
    <glyph glyph-name="ambulance-alt"
      unicode="&#xEA40;"
      horiz-adv-x="256" d="M230.4 205.6H83.6V216.8C83.6 220.8 80.4 224 76.4 224S69.2 220.8 69.2 216.8V205.6H64.4C58.8 205.6 53.6 203.2 49.6 199.2L10.4 159.2C6.8 155.2 4.4 150 4.4 144.8V93.6C4.4 82.4 13.6 72.8 25.2 72.8H36.8C35.6 69.6 34.8 65.9999999999999 34.8 62.4C34.8 45.5999999999999 48.4 31.9999999999999 65.2 31.9999999999999C82 31.9999999999999 95.6 45.5999999999999 95.6 62.4C95.6 65.9999999999999 94.8 69.5999999999999 93.6 72.8H162.8C161.6 69.6 160.8 65.9999999999999 160.8 62.4C160.8 45.5999999999999 174.4 31.9999999999999 191.2 31.9999999999999S221.6 45.5999999999999 221.6 62.4C221.6 65.9999999999999 220.8 69.5999999999999 219.6 72.8H230.0000000000001C241.2 72.8 250.8000000000001 81.9999999999999 250.8000000000001 93.6V184.8C251.2000000000001 196.4 241.6000000000001 205.6 230.4000000000001 205.6zM65.6 46.4C56.4 46.4 49.2 53.6 49.2 62.8S56.4 79.2 65.6 79.2S82 72 82 62.8S74.8 46.4 65.6 46.4zM191.6 46.4C182.4 46.4 175.2 53.6 175.2 62.8S182.4 79.2 191.6 79.2S208 72 208 62.8S200.8 46.4 191.6 46.4zM237.2 93.6C237.2 90 234.4 86.8 230.4 86.8H209.6C204.8 90.4 198.4 92.4 192 92.4S179.2 90.4 174.4 86.8H83.2C78.4 90.4 72 92.4 65.6 92.4C58.8 92.4 52.8 90.4 48 86.8H25.6C22 86.8 18.8 89.6 18.8 93.6V145.2C18.8 146.8 19.6 148.4 20.8 150L60 190C61.2 191.2 62.8 192 64.8 192H230.4C234 192 237.2 189.2 237.2 185.2V93.6zM150.8 146.4H134.8V162.4C134.8 166.4 131.6 169.6 127.6 169.6S120.4 166.4 120.4 162.4V146.4H104.4C100.4 146.4 97.2 143.2 97.2 139.2S100.4 132 104.4 132H120.4V116C120.4 112 123.6 108.8 127.6 108.8S134.8 112 134.8 116V132H150.8C154.8 132 158 135.2 158 139.2S154.8 146.4 150.8 146.4z" />
    <glyph glyph-name="ambulance"
      unicode="&#xEA41;"
      horiz-adv-x="256" d="M232 218H102.4C92 218 83.6 209.2 83.6 198.4V185.2H64.8V195.6C64.8 199.6 61.6 202.8 57.6 202.8S50.4 199.6 50.4 195.6V185.2H35.2C30 185.2 25.6 182 24 177.2L5.6 126L4 122.4L7.2 118V74C7.2 67.2 12.8 61.2 20 61.2H24C27.2 47.6 39.2 37.6 53.6 37.6S80 47.6 83.2 61.2H173.6C176.8 47.6 188.8 37.6 203.2 37.6C217.6 37.6 229.6 47.6 232.8 61.2H241.6C247.2 61.2 251.6 65.6 251.6 71.2V198C251.2 208.8 242.4000000000001 218 232.0000000000001 218zM36.8 171.2H84V130.4H22L36.8 171.2zM53.6 52C44.4 52 37.2 59.6 37.2 68.8C37.2 78 44.4 85.6 53.6 85.6S70 78 70 68.8C70 59.6 62.4 52 53.6 52zM53.6 99.6C39.2 99.6 26.8 89.2 24 75.6H21.2V116.4H84V75.6H83.2C80 89.2 68 99.6 53.6 99.6zM202.8 52C193.6 52 186.4 59.6 186.4 68.8C186.4 78 193.6 85.6 202.8 85.6S219.2 78 219.2 68.8C219.2 59.6 212 52 202.8 52zM237.2 75.6H232.8C229.6 89.2 217.6 99.6 203.2 99.6C188.8 99.6 176.4 89.2 173.6 75.6H98V198.4C98 201.6 100 204 102.8 204H232C234.8 204 236.8 201.2 236.8 198V75.6zM189.2 152H174.4V166.8C174.4 170.8 171.2 174 167.2 174S160 170.8 160 166.8V152H145.2C141.2 152 138 148.8 138 144.8S141.2 137.6 145.2 137.6H160V122.8C160 118.8 163.2 115.6 167.2 115.6S174.4 118.8 174.4 122.8V137.6H189.2C193.2 137.6 196.4 140.8 196.4 144.8S193.2 152 189.2 152z" />
    <glyph glyph-name="amex"
      unicode="&#xEA42;"
      horiz-adv-x="256" d="M230.8 199.6H25.2C12 199.6 1.2 188.8 1.2 175.6V80.8C1.2 67.6 12 56.8 25.2 56.8H231.2C244.4 56.8 255.2 67.6 255.2 80.8V175.6C255.2 188.8 244 199.6 230.8 199.6zM241.2 80.4C241.2 74.8 236.8 70.4 231.2 70.4H25.2C19.6 70.4 15.2 74.8 15.2 80.4V175.6C15.2 181.2 19.6 185.6 25.2 185.6H231.2C236.8 185.6 241.2 181.2 241.2 175.6V80.4zM107.6 113.6L95.6 154.8H80.8V105.2L68.4 154.8H51.6L38.8 102H47.2L50.4 113.2H70.4L73.2 102H90V144.8H91.2L103.6 104.4H112.4L124.4 144.8H125.6V102H134V154.8H119.6L107.6 113.6zM51.6 120.4L58 147.2H62L68.4 120.4H51.6zM208 154.8L196.4 134.4L185.2 154.8H141.6V102H185.6L196.4 122L207.6 102H217.2L202 128L217.2 154.8H208zM180 109.6H150V124.8H170V132H150.4V146.4H180L191.2 126.8L180 109.6z" />
    <glyph glyph-name="analytics-alt-1"
      unicode="&#xEA43;"
      horiz-adv-x="256" d="M232 250.8H24C13.6 250.8 5.2 242.4 5.2 232V24C5.2 13.6 13.6 4.8 24.4 4.8H232.4C242.8 4.8 251.6 13.2 251.6 24V232C251.2 242.4 242.4 250.8 232 250.8zM237.2 24C237.2 21.2 234.8 18.8 232 18.8H24C21.2 18.8 18.8 21.2 18.8 24V100.4L54.4 130.4C58 128 62.4 126.8 66.8 126.8C74 126.8 80.4 130 84.4 135.2L104 124C103.6 122 103.2 120.4 103.2 118.4C103.2 106 113.2 95.6 126 95.6S148.8 105.6 148.8 118.4V120.4L178.8 148C182.8 144.8 187.6 142.8 193.2 142.8C205.6 142.8 216 152.8 216 165.6S205.6 188 192.8 188C180.4 188 170 178 170 165.2C170 163.2 170.4 161.2 170.8 159.6L142.4 133.6C138.4 138 132.4 140.8 125.6 140.8C120 140.8 115.2 138.8 111.2 135.6L89.6 148.8V149.6C89.6 162 79.6 172.4 66.8 172.4S44 162.4 44 149.6C44 146.8 44.4 144 45.6 141.6L18.8 118.8V232C18.8 234.8 21.2 237.2 24 237.2H232C234.8 237.2 237.2 234.8 237.2 232V24zM67.2 140.8C62.4 140.8 58.4 144.8 58.4 149.6S62.4 158.4 67.2 158.4S76 154.4 76 149.6S72 140.8 67.2 140.8zM134.8 118C134.8 113.2 130.8 109.2 126 109.2S117.2 113.2 117.2 118S121.2 126.8 126 126.8S134.8 122.8 134.8 118zM184 165.2C184 170 188 174 192.8 174S201.6 170 201.6 165.2S197.6 156.4 192.8 156.4S184 160.4 184 165.2z" />
    <glyph glyph-name="analytics-chat"
      unicode="&#xEA44;"
      horiz-adv-x="256" d="M227.6 228.8H28.4C15.6 228.8 4.8 218.4 4.8 205.2V96C4.8 83.2 15.2 72.4 28.4 72.4H34.4V39.6C34.4 34 37.6 29.6 42.8 27.6C44 27.2 45.6 26.8 46.8 26.8C50.4 26.8 54 28.4 56.4 31.6L88.8 72.4H226.8C239.6 72.4 250.4 82.8 250.4 96V205.6C251.2 218.4 240.4 228.8 227.6 228.8zM237.2 96C237.2 90.8 232.8 86.4 227.6 86.4H86C84 86.4 82 85.6 80.4 83.6L48.8 43.6V79.2C48.8 83.2 45.6 86.4 41.6 86.4H28.4C23.2 86.4 18.8 90.8 18.8 96V205.6C18.8 210.8 23.2 215.2 28.4 215.2H227.2C232.4 215.2 236.8 210.8 236.8 205.6V96zM174 130H165.6V188C165.6 192 162.4 195.2 158.4 195.2S152 191.6 152 188V130H133.6V178C133.6 182 130.4 185.2 126.4 185.2S119.2 182 119.2 178V129.6H100.8V161.6C100.8 165.6 97.6 168.8 93.6 168.8S86.4 165.6 86.4 161.6V129.6H81.2C77.2 129.6 74 126.4 74 122.4S77.2 115.2 81.2 115.2H173.6C177.6 115.2 180.8 118.4 180.8 122.4C181.2 126.8 178 130 174 130z" />
    <glyph glyph-name="analytics"
      unicode="&#xEA45;"
      horiz-adv-x="256" d="M248.8 16.8L180.8 84.8C196.8 103.2 205.6 126 205.6 150.8C205.6 177.6 195.2 202.8 176.4 221.6C157.6 240.4 132.4 250.8 105.6 250.8C78.8 250.8 53.6 240.4 34.8 221.6C16 202.8 5.6 177.6 5.6 150.8C5.6 124 16 98.8 34.8 80C53.6 61.2 78.8 50.8 105.6 50.8C130 50.8 153.2 59.6 171.6 75.6L239.6 7.6C240.8 6.4 242.8 5.6 244.4 5.6S248 6.4 249.2 7.6C251.6 9.6 251.6 14.4 248.8 16.8zM105.2 64.4C82 64.4 60.4 73.2 44 89.6S18.8 127.6 18.8 150.8C18.8 174 27.6 195.6 44 212S82 237.2 105.2 237.2C128.4 237.2 150 228.4 166.4 212S191.6 174 191.6 150.8C191.6 127.6 182.8 106 166.4 89.6S128.4 64.4 105.2 64.4zM95.6 202.8C76.8 203.6 67.2 186.8 64.8 178C63.6 174.4 66 170.4 69.6 169.6C70.4 169.6 70.8 169.2 71.6 169.2C74.8 169.2 77.6 171.2 78.4 174.4C78.4 174.4 82.4 189.2 95.2 188.8C99.2 188.8 102.4 191.6 102.4 195.6S99.6 202.8 95.6 202.8zM151.6 178.8C150.8 178.8 136.8 183.2 137.2 195.6C137.2 199.6 134.4 202.8 130.4 202.8S123.2 200 123.2 196C122.8 177.2 139.2 167.6 148 165.2C148.8 165.2 149.2 164.8 150 164.8C153.2 164.8 156 166.8 156.8 170C157.6 174 155.6 178 151.6 178.8zM49.6 136.8C46.4 134.8 45.2 130.4 47.2 127.2C49.2 124 53.6 122.8 56.8 124.8C56.8 124.8 70.4 132.4 78.8 123.2C80 121.6 82 120.8 84 120.8C85.6 120.8 87.6 121.6 88.8 122.8C91.6 125.6 91.6 130 89.2 132.8C76 146.4 57.6 141.2 49.6 136.8zM145.6 121.6C142 122.8 138 120.4 137.2 116.8C137.2 116.8 133.2 102.4 121.2 102.4H120.8C117.2 102.4 113.6 99.6 113.6 95.6S116.4 88.4 120.4 88.4H121.2C139.2 88.4 148.4 104.4 150.8 113.2C151.6 116.8 149.6 120.8 145.6 121.6z" />
    <glyph glyph-name="anchor"
      unicode="&#xEA46;"
      horiz-adv-x="256" d="M217.2 70.8L198 86C194 89.2 188 89.2 183.6 86L164.8 71.2C161.6 68.8 161.2 64.4 163.6 61.2C166 58 170.4 57.6 173.6 60L183.6 68C182 42.8 160.8 22.4 134.4 19.2V154.8H159.6C163.6 154.8 166.8 158 166.8 162S163.6 169.2 159.6 169.2H134.4V188.4C148.4 191.6 159.2 204.4 159.2 219.2C159.2 236.8 144.8 250.8 127.6 250.8S96 236.4 96 219.2C96 204 106.4 191.6 120.8 188.4V169.2H95.6C91.6 169.2 88.4 166 88.4 162S91.6 154.8 95.6 154.8H120.8V19.2C94 22.4 73.2 42.8 71.6 68L82.4 59.2C83.6 58 85.2 57.6 86.8 57.6C88.8 57.6 90.8 58.4 92.4 60.4C94.8 63.6 94.4 68 91.2 70.4L72 85.6C68 88.8 62 88.8 57.6 85.6L38.8 70.8C35.6 68.4 35.2 64 37.6 60.8C40 57.6 44.4 57.2 47.6 59.6L57.2 67.2C59.2 32.4 90 4.4 127.6 4.4C165.2 4.4 196 32.4 198 67.2L208.4 58.8C209.6 57.6 211.2 57.2 212.8 57.2C214.8 57.2 216.8 58 218.4 60C220.8 64 220 68.4 217.2 70.8zM109.6 219.2C109.6 229.2 117.6 236.8 127.2 236.8C137.2 236.8 144.8 228.8 144.8 219.2C144.8 209.2 136.8 201.6 127.2 201.6C117.6 201.6 109.6 209.6 109.6 219.2z" />
    </font>
</defs>
</svg>
