<?xml version="1.0" standalone="no"?>
<!DOCTYPE svg PUBLIC "-//W3C//DTD SVG 20010904//EN"
 "http://www.w3.org/TR/2001/REC-SVG-20010904/DTD/svg10.dtd">
<svg version="1.0" xmlns="http://www.w3.org/2000/svg"
 width="1296.000000pt" height="1296.000000pt" viewBox="0 0 1296.000000 1296.000000"
 preserveAspectRatio="xMidYMid meet">
<metadata>
Created by potrace 1.14, written by Peter Selinger 2001-2017
</metadata>
<g transform="translate(0.000000,1296.000000) scale(0.100000,-0.100000)"
fill="#000000" stroke="none">
<path d="M7505 9232 l0 -3729 -935 -1 c-514 0 -946 -1 -960 -1 -25 -1 -25 -2
-25 -94 l1 -92 952 -1 c524 -1 955 -4 959 -8 9 -8 12 -133 17 -637 2 -224 6
-411 9 -416 4 -6 4 -13 1 -16 -5 -5 -8 -144 -3 -164 1 -5 1 -11 0 -15 -1 -9
-1 45 2 -921 1 -456 -1 -831 -6 -834 -5 -3 -1779 -6 -2143 -3 l-41 0 1 441 c1
242 -2 446 -6 452 -5 8 -334 11 -1227 12 l-1221 0 0 -162 c0 -148 2 -163 18
-164 9 -1 163 -2 342 -3 l325 -1 0 -125 0 -125 -340 0 -340 0 -3 -733 c-2
-692 -1 -732 15 -733 10 0 267 -1 571 -1 l552 -1 0 -397 0 -398 68 -1 c37 0
81 0 97 0 17 0 107 0 200 -1 94 0 184 0 200 1 108 4 564 1 573 -5 6 -3 13 -3
15 1 3 5 81 7 174 5 92 -1 182 -2 198 -1 17 0 53 1 80 0 28 0 64 0 80 0 17 0
197 0 400 -1 204 0 384 0 400 1 17 0 53 1 80 0 28 0 64 0 80 0 17 0 197 0 400
-1 204 0 384 0 400 1 17 0 53 1 80 0 28 0 64 -1 80 0 783 3 995 3 995 -4 0 -5
5 -5 10 -2 6 4 46 6 88 6 42 -1 86 -1 97 -1 25 0 305 0 325 0 8 0 80 0 160 0
80 0 152 0 160 0 8 0 80 0 160 0 80 0 152 0 160 0 161 1 206 4 210 10 8 12 5
3699 -3 3706 -9 10 -206 11 -201 2 3 -4 -5 -4 -18 1 -20 7 -23 16 -25 62 -2
67 -2 4493 0 4534 l2 30 110 1 c61 1 117 2 125 3 13 1 15 244 14 2124 l0 2122
-1245 3 -1244 2 0 -3728z m743 -3736 c4 -4 7 -47 7 -96 l0 -88 -365 1 -366 0
0 91 c0 65 3 92 12 96 21 8 703 4 712 -4z"/>
<path d="M5398 160 c-2 -8 -3 -46 -3 -85 l0 -70 1588 -3 c873 -1 1587 1 1588
5 7 59 2 156 -8 160 -7 3 -721 6 -1587 6 -1393 2 -1575 0 -1578 -13z"/>
</g>
</svg>
